<svg width="32" height="32" viewBox="0 0 32 32" fill="none" xmlns="http://www.w3.org/2000/svg">
<path d="M23.9998 17.3333H17.3332V24C17.3332 24.7333 16.7332 25.3333 15.9998 25.3333C15.2665 25.3333 14.6665 24.7333 14.6665 24V17.3333H7.99984C7.2665 17.3333 6.6665 16.7333 6.6665 16C6.6665 15.2667 7.2665 14.6667 7.99984 14.6667H14.6665V8C14.6665 7.26666 15.2665 6.66666 15.9998 6.66666C16.7332 6.66666 17.3332 7.26666 17.3332 8V14.6667H23.9998C24.7332 14.6667 25.3332 15.2667 25.3332 16C25.3332 16.7333 24.7332 17.3333 23.9998 17.3333Z" fill="white"/>
</svg>
