<svg width="45" height="45" viewBox="0 0 45 45" fill="none" xmlns="http://www.w3.org/2000/svg">
<rect width="45" height="45" rx="22.5" fill="url(#paint0_linear_6870_4)"/>
<path d="M34.25 16C34.25 15.7 34.1 15.475 33.875 15.325L28.625 12.325C28.475 12.25 28.4 12.25 28.25 12.25C28.1 12.25 28.025 12.25 27.875 12.325L23 15.1L18.125 12.325C17.975 12.25 17.9 12.25 17.75 12.25C17.6 12.25 17.525 12.25 17.375 12.325L12.125 15.325C11.9 15.475 11.75 15.7 11.75 16V31C11.75 31.45 12.05 31.75 12.5 31.75C12.65 31.75 12.725 31.675 12.875 31.675L17.75 28.9L22.625 31.675C22.775 31.75 22.85 31.75 23 31.75C23.15 31.75 23.225 31.75 23.375 31.675L28.25 28.9L33.125 31.675C33.2 31.75 33.35 31.75 33.5 31.75C33.95 31.75 34.25 31.45 34.25 31V16ZM13.25 16.45L17 14.275V27.55L13.25 29.725V16.45ZM22.25 29.725L18.5 27.55V14.275L22.25 16.45V29.725ZM27.5 27.55L23.75 29.725V16.45L27.5 14.275V27.55ZM29 27.55V14.275L32.75 16.45V29.725L29 27.55Z" fill="white"/>
<defs>
<linearGradient id="paint0_linear_6870_4" x1="0" y1="22.5" x2="45" y2="22.5" gradientUnits="userSpaceOnUse">
<stop stop-color="#3342BC"/>
<stop offset="1" stop-color="#5AC05D"/>
</linearGradient>
</defs>
</svg>
