<svg width="32" height="32" viewBox="0 0 32 32" fill="none" xmlns="http://www.w3.org/2000/svg">
<path d="M9.55992 4.33337H17.1066C17.8199 4.33337 18.4133 4.33337 18.8999 4.37337C19.4066 4.41337 19.8813 4.50404 20.3306 4.73337C21.0207 5.08493 21.5817 5.64597 21.9333 6.33604C22.1626 6.78537 22.2533 7.26004 22.2933 7.76671C22.3333 8.25337 22.3333 8.84671 22.3333 9.56004V13.6667C22.3333 13.9319 22.2279 14.1863 22.0404 14.3738C21.8528 14.5613 21.5985 14.6667 21.3333 14.6667C21.068 14.6667 20.8137 14.5613 20.6261 14.3738C20.4386 14.1863 20.3333 13.9319 20.3333 13.6667V9.60004C20.3333 8.83737 20.3333 8.32404 20.2999 7.92937C20.2693 7.54671 20.2133 7.36404 20.1519 7.24404C19.9924 6.93013 19.7375 6.67481 19.4239 6.51471C19.3026 6.45337 19.1199 6.39737 18.7373 6.36671C18.3426 6.33471 17.8306 6.33337 17.0666 6.33337H9.59992C8.83725 6.33337 8.32392 6.33337 7.92925 6.36671C7.54659 6.39737 7.36392 6.45337 7.24392 6.51471C6.92981 6.67458 6.67446 6.92993 6.51459 7.24404C6.45325 7.36404 6.39725 7.54671 6.36659 7.92937C6.33459 8.32404 6.33325 8.83604 6.33325 9.60004V22.4C6.33325 23.1627 6.33325 23.676 6.36659 24.0694C6.39725 24.4534 6.45325 24.636 6.51459 24.756C6.66659 25.0534 6.90125 25.2974 7.19192 25.4574C7.21325 25.4627 7.26036 25.4712 7.33325 25.4827C7.48881 25.5058 7.70036 25.5272 7.96792 25.5467C8.49859 25.5867 9.18125 25.6134 9.90659 25.6307C11.3533 25.6667 12.9199 25.6667 13.6666 25.6667C13.9318 25.6667 14.1862 25.7721 14.3737 25.9596C14.5612 26.1471 14.6666 26.4015 14.6666 26.6667C14.6666 26.9319 14.5612 27.1863 14.3737 27.3738C14.1862 27.5614 13.9318 27.6667 13.6666 27.6667H13.6639C12.9173 27.6667 11.3306 27.6667 9.85725 27.6307C9.17799 27.6167 8.49914 27.5869 7.82125 27.5414C7.56036 27.5243 7.30018 27.4976 7.04125 27.4614C6.79712 27.4331 6.55878 27.3674 6.33459 27.2667C5.64542 26.9156 5.08492 26.3556 4.73325 25.6667C4.50392 25.216 4.41325 24.7414 4.37325 24.2347C4.33325 23.748 4.33325 23.1547 4.33325 22.4414V9.56004C4.33325 8.84671 4.33325 8.25337 4.37325 7.76671C4.41325 7.26004 4.50392 6.78537 4.73325 6.33604C5.08481 5.64597 5.64585 5.08493 6.33592 4.73337C6.78525 4.50404 7.25992 4.41337 7.76659 4.37337C8.25325 4.33337 8.84659 4.33337 9.55992 4.33337Z" fill="white"/>
<path d="M19.1614 16.3334H24.8387C25.3654 16.3334 25.8201 16.3334 26.1947 16.364C26.5907 16.396 26.9841 16.468 27.3614 16.66C27.9267 16.948 28.3854 17.4067 28.6734 17.972C28.8654 18.3494 28.9374 18.7427 28.9694 19.1387C29.0001 19.512 29.0001 19.968 29.0001 20.4947V23.5054C29.0001 24.032 29.0001 24.4867 28.9694 24.8614C28.9488 25.266 28.8482 25.6625 28.6734 26.028C28.3861 26.5928 27.9272 27.0521 27.3627 27.34C26.9841 27.532 26.5894 27.604 26.1947 27.636C25.8214 27.6667 25.3654 27.6667 24.8387 27.6667H19.1601C18.6334 27.6667 18.1787 27.6667 17.8041 27.636C17.3995 27.6154 17.0029 27.5148 16.6374 27.34C16.0726 27.0527 15.6133 26.5939 15.3254 26.0294C15.1505 25.6634 15.0499 25.2665 15.0294 24.8614C14.9987 24.488 14.9987 24.032 14.9987 23.5054V20.4934C14.9987 19.9667 14.9987 19.512 15.0294 19.1374C15.05 18.7327 15.1507 18.3362 15.3254 17.9707C15.6131 17.4057 16.0724 16.9464 16.6374 16.6587C17.0029 16.4839 17.3995 16.3833 17.8041 16.3627C18.1774 16.332 18.6334 16.332 19.1601 16.332M17.9667 18.356C17.6947 18.3787 17.5934 18.416 17.5441 18.4414C17.3565 18.5372 17.2039 18.6897 17.1081 18.8774C17.0814 18.928 17.0454 19.028 17.0227 19.3L17.0201 19.332H26.9774L26.9748 19.3C26.9521 19.028 26.9147 18.9267 26.8894 18.8774C26.7933 18.6895 26.6402 18.5369 26.4521 18.4414C26.4028 18.4147 26.3027 18.3787 26.0308 18.356C25.6205 18.3334 25.2096 18.3254 24.7987 18.332H19.1987C18.6227 18.332 18.2494 18.332 17.9667 18.356ZM27.0001 22H17.0001V23.4667C17.0001 24.0427 17.0001 24.416 17.0241 24.6987C17.0467 24.9707 17.0841 25.072 17.1094 25.12C17.205 25.3082 17.3576 25.4612 17.5454 25.5574C17.5961 25.584 17.6961 25.62 17.9681 25.6427C18.2507 25.6654 18.6241 25.6667 19.2001 25.6667H24.8001C25.3761 25.6667 25.7494 25.6667 26.0321 25.6427C26.3041 25.62 26.4054 25.5827 26.4534 25.5574C26.6417 25.4615 26.7948 25.3084 26.8907 25.12C26.9174 25.0707 26.9534 24.9707 26.9761 24.6987C26.9987 24.416 27.0001 24.0427 27.0001 23.4667V22ZM8.66675 8.33337C8.40153 8.33337 8.14718 8.43873 7.95964 8.62627C7.7721 8.8138 7.66675 9.06816 7.66675 9.33337C7.66675 9.59859 7.7721 9.85294 7.95964 10.0405C8.14718 10.228 8.40153 10.3334 8.66675 10.3334H14.0001C14.2653 10.3334 14.5197 10.228 14.7072 10.0405C14.8947 9.85294 15.0001 9.59859 15.0001 9.33337C15.0001 9.06816 14.8947 8.8138 14.7072 8.62627C14.5197 8.43873 14.2653 8.33337 14.0001 8.33337H8.66675ZM7.66675 13.3334C7.66675 13.0682 7.7721 12.8138 7.95964 12.6263C8.14718 12.4387 8.40153 12.3334 8.66675 12.3334H18.0001C18.2653 12.3334 18.5197 12.4387 18.7072 12.6263C18.8947 12.8138 19.0001 13.0682 19.0001 13.3334C19.0001 13.5986 18.8947 13.8529 18.7072 14.0405C18.5197 14.228 18.2653 14.3334 18.0001 14.3334H8.66675C8.40153 14.3334 8.14718 14.228 7.95964 14.0405C7.7721 13.8529 7.66675 13.5986 7.66675 13.3334ZM8.66675 16.3334C8.40153 16.3334 8.14718 16.4387 7.95964 16.6263C7.7721 16.8138 7.66675 17.0682 7.66675 17.3334C7.66675 17.5986 7.7721 17.8529 7.95964 18.0405C8.14718 18.228 8.40153 18.3334 8.66675 18.3334H13.3334C13.5986 18.3334 13.853 18.228 14.0405 18.0405C14.2281 17.8529 14.3334 17.5986 14.3334 17.3334C14.3334 17.0682 14.2281 16.8138 14.0405 16.6263C13.853 16.4387 13.5986 16.3334 13.3334 16.3334H8.66675ZM7.66675 22.6667C7.66675 22.4015 7.7721 22.1471 7.95964 21.9596C8.14718 21.7721 8.40153 21.6667 8.66675 21.6667H11.3334C11.5986 21.6667 11.853 21.7721 12.0405 21.9596C12.2281 22.1471 12.3334 22.4015 12.3334 22.6667C12.3334 22.9319 12.2281 23.1863 12.0405 23.3738C11.853 23.5614 11.5986 23.6667 11.3334 23.6667H8.66675C8.40153 23.6667 8.14718 23.5614 7.95964 23.3738C7.7721 23.1863 7.66675 22.9319 7.66675 22.6667Z" fill="white"/>
</svg>
