<svg width="27" height="27" viewBox="0 0 27 27" fill="none" xmlns="http://www.w3.org/2000/svg">
<path d="M18.5625 5.625V3.375M8.4375 5.625V3.375M3.65625 9H23.3438M11.5403 16.0223L12.7035 17.3509C12.8104 17.4735 13.0028 17.4634 13.0973 17.3329L15.4598 14.0625" stroke="white" stroke-width="2" stroke-linecap="round" stroke-linejoin="round"/>
<path d="M3.375 11.2995C3.375 8.92012 3.375 7.72987 3.8655 6.82087C4.30903 6.01009 4.99724 5.36007 5.832 4.9635C6.795 4.5 8.055 4.5 10.575 4.5H16.425C18.945 4.5 20.205 4.5 21.168 4.9635C22.0151 5.37075 22.7025 6.021 23.1345 6.81975C23.625 7.731 23.625 8.92125 23.625 11.3006V16.8266C23.625 19.206 23.625 20.3962 23.1345 21.3052C22.691 22.116 22.0028 22.7661 21.168 23.1626C20.205 23.625 18.945 23.625 16.425 23.625H10.575C8.055 23.625 6.795 23.625 5.832 23.1615C4.99741 22.7652 4.30921 22.1156 3.8655 21.3052C3.375 20.394 3.375 19.2037 3.375 16.8244V11.2995Z" stroke="white" stroke-width="2" stroke-linecap="round" stroke-linejoin="round"/>
</svg>
