<svg width="59" height="59" viewBox="0 0 59 59" fill="none" xmlns="http://www.w3.org/2000/svg">
<g filter="url(#filter0_d_6819_2)">
<circle cx="29.5" cy="26.5" r="24.5" fill="#DADFFF"/>
</g>
<path d="M33 23L25 31M33 31H32.9867M25.0134 23H25M23.256 37.1546C24.0427 37.1546 24.4374 37.1546 24.796 37.288C24.8467 37.3066 24.896 37.3271 24.944 37.3493C25.292 37.5093 25.5707 37.7866 26.128 38.344C27.4107 39.6266 28.052 40.268 28.84 40.328C28.9467 40.336 29.0534 40.336 29.16 40.328C29.948 40.268 30.5894 39.6266 31.872 38.344C32.4294 37.7866 32.708 37.5093 33.056 37.3493C33.104 37.3271 33.1529 37.3066 33.2027 37.288C33.5627 37.1546 33.956 37.1546 34.744 37.1546H34.8907C36.9 37.1546 37.9054 37.1546 38.5307 36.5306C39.156 35.9066 39.1547 34.9 39.1547 32.8906V32.744C39.1547 31.9573 39.1547 31.5626 39.288 31.204C39.3067 31.1533 39.3272 31.104 39.3494 31.056C39.5094 30.708 39.7867 30.4293 40.344 29.872C41.6267 28.5893 42.268 27.948 42.328 27.16C42.336 27.0533 42.336 26.9466 42.328 26.84C42.268 26.052 41.6267 25.4106 40.344 24.128C39.7867 23.5706 39.5094 23.292 39.3494 22.944L39.288 22.7973C39.1547 22.4373 39.1547 22.044 39.1547 21.256V21.1093C39.1547 19.1 39.1547 18.0946 38.5307 17.4693C37.9067 16.844 36.9 16.8453 34.8907 16.8453H34.744C33.9574 16.8453 33.5627 16.8453 33.204 16.712L33.056 16.6506C32.708 16.4906 32.4294 16.2133 31.872 15.656C30.5894 14.3733 29.948 13.732 29.16 13.672C29.0535 13.6656 28.9466 13.6656 28.84 13.672C28.052 13.732 27.4107 14.3733 26.128 15.656C25.5707 16.2133 25.292 16.492 24.944 16.6506L24.7974 16.712C24.4374 16.8453 24.044 16.8453 23.256 16.8453H23.1094C21.1 16.8453 20.0947 16.8453 19.4694 17.4693C18.844 18.0933 18.8454 19.1 18.8454 21.1093V21.256C18.8454 22.0426 18.8454 22.4373 18.712 22.796C18.6925 22.8466 18.672 22.896 18.6507 22.944C18.4907 23.292 18.2134 23.5706 17.656 24.128C16.3734 25.4106 15.732 26.052 15.672 26.84C15.6656 26.9466 15.6656 27.0534 15.672 27.16C15.732 27.948 16.3734 28.5893 17.656 29.872C18.2134 30.4293 18.492 30.708 18.6507 31.056C18.6729 31.104 18.6934 31.1529 18.712 31.2026C18.8454 31.5626 18.8454 31.956 18.8454 32.744V32.8906C18.8454 34.9 18.8454 35.9053 19.4694 36.5306C20.0934 37.156 21.1 37.1546 23.1094 37.1546H23.256Z" stroke="#17237E" stroke-width="2" stroke-linecap="round" stroke-linejoin="round"/>
<defs>
<filter id="filter0_d_6819_2" x="0" y="0" width="59" height="59" filterUnits="userSpaceOnUse" color-interpolation-filters="sRGB">
<feFlood flood-opacity="0" result="BackgroundImageFix"/>
<feColorMatrix in="SourceAlpha" type="matrix" values="0 0 0 0 0 0 0 0 0 0 0 0 0 0 0 0 0 0 127 0" result="hardAlpha"/>
<feMorphology radius="4" operator="erode" in="SourceAlpha" result="effect1_dropShadow_6819_2"/>
<feOffset dy="3"/>
<feGaussianBlur stdDeviation="4.5"/>
<feComposite in2="hardAlpha" operator="out"/>
<feColorMatrix type="matrix" values="0 0 0 0 0.0901961 0 0 0 0 0.137255 0 0 0 0 0.494118 0 0 0 1 0"/>
<feBlend mode="normal" in2="BackgroundImageFix" result="effect1_dropShadow_6819_2"/>
<feBlend mode="normal" in="SourceGraphic" in2="effect1_dropShadow_6819_2" result="shape"/>
</filter>
</defs>
</svg>
