<svg width="30" height="30" viewBox="0 0 30 30" fill="none" xmlns="http://www.w3.org/2000/svg">
<circle cx="15" cy="15" r="15" fill="#007804"/>
<path d="M12.3459 18.4125L21.5271 9.23125C21.7438 9.01458 21.9966 8.90625 22.2854 8.90625C22.5743 8.90625 22.8271 9.01458 23.0438 9.23125C23.2604 9.44792 23.3688 9.70539 23.3688 10.0037C23.3688 10.3019 23.2604 10.5591 23.0438 10.775L13.1042 20.7417C12.8875 20.9583 12.6348 21.0667 12.3459 21.0667C12.057 21.0667 11.8042 20.9583 11.5875 20.7417L6.9292 16.0833C6.71253 15.8667 6.60853 15.6096 6.6172 15.312C6.62587 15.0144 6.73889 14.757 6.95628 14.5396C7.17367 14.3222 7.43114 14.2139 7.7287 14.2146C8.02625 14.2153 8.28337 14.3236 8.50003 14.5396L12.3459 18.4125Z" fill="white"/>
</svg>
