<svg width="30" height="30" viewBox="0 0 30 30" fill="none" xmlns="http://www.w3.org/2000/svg">
<circle cx="15" cy="15" r="15" fill="#CF1212"/>
<path d="M14.9999 16.5167L9.69154 21.825C9.49293 22.0236 9.24015 22.1229 8.9332 22.1229C8.62626 22.1229 8.37348 22.0236 8.17487 21.825C7.97626 21.6264 7.87695 21.3736 7.87695 21.0667C7.87695 20.7597 7.97626 20.5069 8.17487 20.3083L13.4832 15L8.17487 9.69167C7.97626 9.49305 7.87695 9.24028 7.87695 8.93333C7.87695 8.62639 7.97626 8.37361 8.17487 8.175C8.37348 7.97639 8.62626 7.87708 8.9332 7.87708C9.24015 7.87708 9.49293 7.97639 9.69154 8.175L14.9999 13.4833L20.3082 8.175C20.5068 7.97639 20.7596 7.87708 21.0665 7.87708C21.3735 7.87708 21.6263 7.97639 21.8249 8.175C22.0235 8.37361 22.1228 8.62639 22.1228 8.93333C22.1228 9.24028 22.0235 9.49305 21.8249 9.69167L16.5165 15L21.8249 20.3083C22.0235 20.5069 22.1228 20.7597 22.1228 21.0667C22.1228 21.3736 22.0235 21.6264 21.8249 21.825C21.6263 22.0236 21.3735 22.1229 21.0665 22.1229C20.7596 22.1229 20.5068 22.0236 20.3082 21.825L14.9999 16.5167Z" fill="white"/>
</svg>
