<svg width="27" height="27" viewBox="0 0 27 27" fill="none" xmlns="http://www.w3.org/2000/svg">
<path d="M11.25 25.875V23.625H5.625C5.00625 23.625 4.47675 23.4049 4.0365 22.9646C3.59625 22.5244 3.37575 21.9945 3.375 21.375V5.625C3.375 5.00625 3.5955 4.47675 4.0365 4.0365C4.4775 3.59625 5.007 3.37575 5.625 3.375H11.25V1.125H13.5V25.875H11.25ZM5.625 21.375H11.25V19.125H7.875V16.875H11.25V14.625H7.875V12.375H11.25V10.125H7.875V7.875H11.25V5.625H5.625V21.375ZM15.75 5.625V3.375H21.375C21.9938 3.375 22.5236 3.5955 22.9646 4.0365C23.4056 4.4775 23.6258 5.007 23.625 5.625V21.375C23.625 21.9938 23.4049 22.5236 22.9646 22.9646C22.5244 23.4056 21.9945 23.6258 21.375 23.625H15.75V21.375H21.375V5.625H15.75ZM15.75 14.625V12.375H19.125V14.625H15.75ZM15.75 10.125V7.875H19.125V10.125H15.75Z" fill="white"/>
</svg>
