<svg width="32" height="32" viewBox="0 0 32 32" fill="none" xmlns="http://www.w3.org/2000/svg">
<path d="M6.24917 8.28399L9.0665 25.3013C9.19537 26.0804 9.59662 26.7884 10.1988 27.2992C10.8009 27.81 11.5649 28.0905 12.3545 28.0907H16.8185M25.7492 8.28399L22.9332 25.3013C22.8043 26.0804 22.4031 26.7884 21.8009 27.2992C21.1988 27.81 20.4348 28.0905 19.6452 28.0907H15.1812M13.3625 14.8213V21.5533M18.6372 14.8213V21.5533M3.6665 8.28399H28.3332M19.7025 8.28399V5.91066C19.7025 5.38023 19.4918 4.87152 19.1167 4.49645C18.7416 4.12137 18.2329 3.91066 17.7025 3.91066H14.2972C13.7667 3.91066 13.258 4.12137 12.883 4.49645C12.5079 4.87152 12.2972 5.38023 12.2972 5.91066V8.28399H19.7025Z" stroke="white" stroke-width="2" stroke-linecap="round" stroke-linejoin="round"/>
</svg>
