<svg width="26" height="26" viewBox="0 0 26 26" fill="none" xmlns="http://www.w3.org/2000/svg">
<path d="M5.07766 6.73082L7.36675 20.5574C7.47145 21.1904 7.79747 21.7656 8.28672 22.1807C8.77596 22.5957 9.39667 22.8236 10.0382 22.8237H13.6652M20.9214 6.73082L18.6334 20.5574C18.5287 21.1904 18.2027 21.7656 17.7134 22.1807C17.2242 22.5957 16.6035 22.8236 15.9619 22.8237H12.3349M10.8572 12.0424V17.5122M15.1429 12.0424V17.5122M2.97925 6.73082H23.0209M16.0085 6.73082V4.80249C16.0085 4.37151 15.8373 3.95819 15.5325 3.65344C15.2278 3.34869 14.8145 3.17749 14.3835 3.17749H11.6167C11.1857 3.17749 10.7724 3.34869 10.4676 3.65344C10.1629 3.95819 9.99166 4.37151 9.99166 4.80249V6.73082H16.0085Z" stroke="#F34343" stroke-width="2" stroke-linecap="round" stroke-linejoin="round"/>
</svg>
