<svg width="32" height="32" viewBox="0 0 32 32" fill="none" xmlns="http://www.w3.org/2000/svg">
<path d="M15.9999 20.7668C15.8221 20.7668 15.6555 20.7393 15.4999 20.6842C15.3444 20.6291 15.1999 20.5344 15.0666 20.4002L10.2666 15.6002C9.99992 15.3335 9.87192 15.0224 9.88259 14.6668C9.89325 14.3113 10.0213 14.0002 10.2666 13.7335C10.5333 13.4668 10.8501 13.3282 11.2173 13.3175C11.5844 13.3068 11.9008 13.4344 12.1666 13.7002L14.6666 16.2002V6.66683C14.6666 6.28906 14.7946 5.97261 15.0506 5.7175C15.3066 5.46239 15.623 5.33439 15.9999 5.3335C16.3768 5.33261 16.6937 5.46061 16.9506 5.7175C17.2075 5.97439 17.335 6.29083 17.3333 6.66683V16.2002L19.8333 13.7002C20.0999 13.4335 20.4168 13.3055 20.7839 13.3162C21.151 13.3268 21.4675 13.4659 21.7333 13.7335C21.9777 14.0002 22.1057 14.3113 22.1173 14.6668C22.1288 15.0224 22.0008 15.3335 21.7333 15.6002L16.9333 20.4002C16.7999 20.5335 16.6555 20.6282 16.4999 20.6842C16.3444 20.7402 16.1777 20.7677 15.9999 20.7668ZM7.99992 26.6668C7.26659 26.6668 6.63903 26.4059 6.11725 25.8842C5.59547 25.3624 5.33414 24.7344 5.33325 24.0002V21.3335C5.33325 20.9557 5.46125 20.6393 5.71725 20.3842C5.97325 20.1291 6.2897 20.0011 6.66659 20.0002C7.04347 19.9993 7.36036 20.1273 7.61725 20.3842C7.87414 20.6411 8.0017 20.9575 7.99992 21.3335V24.0002H23.9999V21.3335C23.9999 20.9557 24.1279 20.6393 24.3839 20.3842C24.6399 20.1291 24.9564 20.0011 25.3333 20.0002C25.7101 19.9993 26.027 20.1273 26.2839 20.3842C26.5408 20.6411 26.6684 20.9575 26.6666 21.3335V24.0002C26.6666 24.7335 26.4057 25.3615 25.8839 25.8842C25.3621 26.4068 24.7341 26.6677 23.9999 26.6668H7.99992Z" fill="black"/>
</svg>
