<svg width="29" height="29" viewBox="0 0 29 29" fill="none" xmlns="http://www.w3.org/2000/svg">
<path d="M21.7497 25.0731H7.24967C6.36838 25.0731 5.52319 24.723 4.90002 24.0998C4.27685 23.4767 3.92676 22.6315 3.92676 21.7502V7.25016C3.92676 6.36887 4.27685 5.52367 4.90002 4.90051C5.52319 4.27734 6.36838 3.92725 7.24967 3.92725H14.4997C14.74 3.92725 14.9705 4.02273 15.1405 4.19268C15.3104 4.36264 15.4059 4.59314 15.4059 4.8335C15.4059 5.07385 15.3104 5.30436 15.1405 5.47431C14.9705 5.64427 14.74 5.73975 14.4997 5.73975H7.24967C6.84909 5.73975 6.46491 5.89888 6.18165 6.18214C5.89839 6.4654 5.73926 6.84958 5.73926 7.25016V21.7502C5.73926 22.1508 5.89839 22.5349 6.18165 22.8182C6.46491 23.1014 6.84909 23.2606 7.24967 23.2606H21.7497C22.1503 23.2606 22.5344 23.1014 22.8177 22.8182C23.101 22.5349 23.2601 22.1508 23.2601 21.7502V14.5002C23.2601 14.2598 23.3556 14.0293 23.5255 13.8593C23.6955 13.6894 23.926 13.5939 24.1663 13.5939C24.4067 13.5939 24.6372 13.6894 24.8072 13.8593C24.9771 14.0293 25.0726 14.2598 25.0726 14.5002V21.7502C25.0726 22.6315 24.7225 23.4767 24.0993 24.0998C23.4762 24.723 22.631 25.0731 21.7497 25.0731ZM24.1663 10.5731C23.927 10.57 23.6983 10.4735 23.529 10.3042C23.3597 10.1349 23.2632 9.90621 23.2601 9.66683V5.73975H19.333C19.0927 5.73975 18.8621 5.64427 18.6922 5.47431C18.5222 5.30436 18.4268 5.07385 18.4268 4.8335C18.4268 4.59314 18.5222 4.36264 18.6922 4.19268C18.8621 4.02273 19.0927 3.92725 19.333 3.92725H24.1663C24.4057 3.93038 24.6344 4.02686 24.8037 4.19614C24.973 4.36542 25.0695 4.59412 25.0726 4.8335V9.66683C25.0695 9.90621 24.973 10.1349 24.8037 10.3042C24.6344 10.4735 24.4057 10.57 24.1663 10.5731Z" fill="black"/>
<path d="M16.3125 13.5939C16.0793 13.5761 15.8625 13.4677 15.7083 13.2919C15.5597 13.1257 15.4775 12.9106 15.4775 12.6877C15.4775 12.4648 15.5597 12.2497 15.7083 12.0835L23.5625 4.22936C23.6454 4.14032 23.7455 4.0689 23.8567 4.01937C23.9678 3.96984 24.0878 3.94321 24.2095 3.94106C24.3312 3.93891 24.4521 3.9613 24.5649 4.00688C24.6778 4.05246 24.7803 4.1203 24.8663 4.20635C24.9524 4.29241 25.0202 4.39492 25.0658 4.50776C25.1114 4.6206 25.1338 4.74147 25.1316 4.86316C25.1295 4.98484 25.1028 5.10484 25.0533 5.21601C25.0038 5.32717 24.9323 5.42722 24.8433 5.51019L16.9166 13.2919C16.7625 13.4677 16.5456 13.5761 16.3125 13.5939Z" fill="black"/>
</svg>
