<svg width="76" height="76" viewBox="0 0 76 76" fill="none" xmlns="http://www.w3.org/2000/svg">
<circle cx="38" cy="38" r="38" fill="#FFC8C8"/>
<path d="M38 18.5C27.275 18.5 18.5 27.275 18.5 38C18.5 48.725 27.275 57.5 38 57.5C48.725 57.5 57.5 48.725 57.5 38C57.5 27.275 48.725 18.5 38 18.5ZM38 22.8333C41.3583 22.8333 44.5 24.025 47.1 25.8667L25.8667 47.1C24.025 44.5 22.8333 41.3583 22.8333 38C22.8333 29.6583 29.6583 22.8333 38 22.8333ZM38 53.1667C34.6417 53.1667 31.5 51.975 28.9 50.1333L50.1333 28.9C51.975 31.5 53.1667 34.6417 53.1667 38C53.1667 46.3417 46.3417 53.1667 38 53.1667Z" fill="#D50000"/>
</svg>
