<svg width="32" height="33" viewBox="0 0 32 33" fill="none" xmlns="http://www.w3.org/2000/svg">
<path d="M15.9332 24.5C16.3998 24.5 16.7945 24.3386 17.1172 24.016C17.4398 23.6933 17.6007 23.2991 17.5998 22.8333C17.5989 22.3675 17.4381 21.9729 17.1172 21.6493C16.7963 21.3257 16.4016 21.1649 15.9332 21.1666C15.4647 21.1684 15.0705 21.3297 14.7505 21.6506C14.4305 21.9715 14.2692 22.3657 14.2665 22.8333C14.2638 23.3009 14.4252 23.6955 14.7505 24.0173C15.0758 24.3391 15.4701 24.5 15.9332 24.5ZM14.7332 19.3666H17.1998C17.1998 18.6333 17.2834 18.0555 17.4505 17.6333C17.6176 17.2111 18.0896 16.6333 18.8665 15.9C19.4443 15.3222 19.8998 14.772 20.2332 14.2493C20.5665 13.7266 20.7332 13.0991 20.7332 12.3666C20.7332 11.1222 20.2776 10.1666 19.3665 9.49997C18.4554 8.8333 17.3776 8.49997 16.1332 8.49997C14.8665 8.49997 13.839 8.8333 13.0505 9.49997C12.2621 10.1666 11.7118 10.9666 11.3998 11.9L13.5998 12.7666C13.7109 12.3666 13.9612 11.9333 14.3505 11.4666C14.7398 11 15.3341 10.7666 16.1332 10.7666C16.8443 10.7666 17.3776 10.9613 17.7332 11.3506C18.0887 11.74 18.2665 12.1675 18.2665 12.6333C18.2665 13.0777 18.1332 13.4946 17.8665 13.884C17.5998 14.2733 17.2665 14.6342 16.8665 14.9666C15.8887 15.8333 15.2887 16.4889 15.0665 16.9333C14.8443 17.3777 14.7332 18.1889 14.7332 19.3666ZM15.9998 29.8333C14.1554 29.8333 12.4221 29.4835 10.7998 28.784C9.17762 28.0844 7.76651 27.1342 6.56651 25.9333C5.36651 24.7324 4.41673 23.3213 3.71717 21.7C3.01762 20.0786 2.66739 18.3453 2.66651 16.5C2.66562 14.6546 3.01584 12.9213 3.71717 11.3C4.41851 9.67863 5.36828 8.26752 6.56651 7.06663C7.76473 5.86574 9.17584 4.91597 10.7998 4.2173C12.4238 3.51863 14.1572 3.16841 15.9998 3.16663C17.8425 3.16485 19.5758 3.51508 21.1998 4.2173C22.8238 4.91952 24.235 5.8693 25.4332 7.06663C26.6314 8.26397 27.5816 9.67508 28.2838 11.3C28.9861 12.9249 29.3358 14.6582 29.3332 16.5C29.3305 18.3417 28.9803 20.0751 28.2825 21.7C27.5847 23.3249 26.635 24.736 25.4332 25.9333C24.2314 27.1306 22.8203 28.0809 21.1998 28.784C19.5794 29.4871 17.8461 29.8369 15.9998 29.8333ZM15.9998 27.1666C18.9776 27.1666 21.4998 26.1333 23.5665 24.0666C25.6332 22 26.6665 19.4777 26.6665 16.5C26.6665 13.5222 25.6332 11 23.5665 8.9333C21.4998 6.86663 18.9776 5.8333 15.9998 5.8333C13.0221 5.8333 10.4998 6.86663 8.43317 8.9333C6.36651 11 5.33317 13.5222 5.33317 16.5C5.33317 19.4777 6.36651 22 8.43317 24.0666C10.4998 26.1333 13.0221 27.1666 15.9998 27.1666Z" fill="#919191"/>
</svg>
