<svg width="28" height="28" viewBox="0 0 28 28" fill="none" xmlns="http://www.w3.org/2000/svg">
<path d="M7.87492 22.9656C9.62028 24.3403 11.7782 25.0863 13.9999 25.0831C16.3117 25.0831 18.4391 24.2921 20.1249 22.9656M11.0833 5.68555C7.02967 6.93096 4.08325 10.7045 4.08325 15.1665C4.08325 16.2894 4.26992 17.3685 4.61409 18.3748M16.9166 5.68555C20.9702 6.93096 23.9166 10.7045 23.9166 15.1665C23.9166 16.2894 23.7299 17.3685 23.3858 18.3748" stroke="black" stroke-width="2.66667"/>
<path d="M25.0833 20.9998C25.0833 21.7826 24.7753 22.4931 24.2736 23.017C23.8051 23.5064 23.1809 23.8175 22.508 23.8968C21.8352 23.9761 21.1557 23.8187 20.5863 23.4516C20.0168 23.0845 19.593 22.5306 19.3874 21.885C19.1819 21.2395 19.2075 20.5425 19.4599 19.9137C19.7122 19.285 20.1756 18.7637 20.7705 18.4394C21.3653 18.1151 22.0545 18.0079 22.7197 18.1364C23.3849 18.2649 23.9847 18.621 24.416 19.1435C24.8473 19.666 25.0832 20.3223 25.0833 20.9998ZM8.74996 20.9998C8.74996 21.7826 8.44196 22.4931 7.94029 23.017C7.47181 23.5064 6.84756 23.8175 6.17471 23.8968C5.50186 23.9761 4.82239 23.8187 4.25295 23.4516C3.68351 23.0845 3.25963 22.5306 3.05409 21.885C2.84855 21.2395 2.87416 20.5425 3.12653 19.9137C3.37891 19.285 3.84229 18.7637 4.43714 18.4394C5.03198 18.1151 5.72118 18.0079 6.38639 18.1364C7.05161 18.2649 7.65135 18.621 8.08264 19.1435C8.51393 19.666 8.74988 20.3223 8.74996 20.9998ZM16.9166 5.2498C16.9166 6.03264 16.6086 6.74314 16.107 7.26697C15.6385 7.7564 15.0142 8.06748 14.3414 8.14678C13.6685 8.22609 12.9891 8.06868 12.4196 7.70159C11.8502 7.33449 11.4263 6.78061 11.2208 6.13503C11.0152 5.48945 11.0408 4.79246 11.2932 4.16371C11.5456 3.53496 12.009 3.01368 12.6038 2.68937C13.1987 2.36506 13.8878 2.25795 14.5531 2.38642C15.2183 2.5149 15.818 2.87096 16.2493 3.39345C16.6806 3.91595 16.9165 4.5723 16.9166 5.2498Z" stroke="black" stroke-width="2.66667" stroke-linecap="round" stroke-linejoin="round"/>
</svg>
