<svg width="28" height="28" viewBox="0 0 28 28" fill="none" xmlns="http://www.w3.org/2000/svg">
<path fill-rule="evenodd" clip-rule="evenodd" d="M23.3334 4.66665H4.66675C4.35733 4.66665 4.06058 4.78956 3.84179 5.00836C3.623 5.22715 3.50008 5.52389 3.50008 5.83331V22.1666C3.50008 22.4761 3.623 22.7728 3.84179 22.9916C4.06058 23.2104 4.35733 23.3333 4.66675 23.3333H23.3334C23.6428 23.3333 23.9396 23.2104 24.1584 22.9916C24.3772 22.7728 24.5001 22.4761 24.5001 22.1666V5.83331C24.5001 5.52389 24.3772 5.22715 24.1584 5.00836C23.9396 4.78956 23.6428 4.66665 23.3334 4.66665ZM4.66675 2.33331C3.73849 2.33331 2.84825 2.70206 2.19187 3.35844C1.5355 4.01482 1.16675 4.90506 1.16675 5.83331V22.1666C1.16675 23.0949 1.5355 23.9851 2.19187 24.6415C2.84825 25.2979 3.73849 25.6666 4.66675 25.6666H23.3334C24.2617 25.6666 25.1519 25.2979 25.8083 24.6415C26.4647 23.9851 26.8334 23.0949 26.8334 22.1666V5.83331C26.8334 4.90506 26.4647 4.01482 25.8083 3.35844C25.1519 2.70206 24.2617 2.33331 23.3334 2.33331H4.66675ZM7.00008 8.16665H9.33342V10.5H7.00008V8.16665ZM12.8334 8.16665C12.524 8.16665 12.2273 8.28956 12.0085 8.50836C11.7897 8.72715 11.6667 9.02389 11.6667 9.33331C11.6667 9.64273 11.7897 9.93948 12.0085 10.1583C12.2273 10.3771 12.524 10.5 12.8334 10.5H19.8334C20.1428 10.5 20.4396 10.3771 20.6584 10.1583C20.8772 9.93948 21.0001 9.64273 21.0001 9.33331C21.0001 9.02389 20.8772 8.72715 20.6584 8.50836C20.4396 8.28956 20.1428 8.16665 19.8334 8.16665H12.8334ZM9.33342 12.8333H7.00008V15.1666H9.33342V12.8333ZM11.6667 14C11.6667 13.6906 11.7897 13.3938 12.0085 13.175C12.2273 12.9562 12.524 12.8333 12.8334 12.8333H19.8334C20.1428 12.8333 20.4396 12.9562 20.6584 13.175C20.8772 13.3938 21.0001 13.6906 21.0001 14C21.0001 14.3094 20.8772 14.6061 20.6584 14.8249C20.4396 15.0437 20.1428 15.1666 19.8334 15.1666H12.8334C12.524 15.1666 12.2273 15.0437 12.0085 14.8249C11.7897 14.6061 11.6667 14.3094 11.6667 14ZM9.33342 17.5H7.00008V19.8333H9.33342V17.5ZM11.6667 18.6666C11.6667 18.3572 11.7897 18.0605 12.0085 17.8417C12.2273 17.6229 12.524 17.5 12.8334 17.5H19.8334C20.1428 17.5 20.4396 17.6229 20.6584 17.8417C20.8772 18.0605 21.0001 18.3572 21.0001 18.6666C21.0001 18.9761 20.8772 19.2728 20.6584 19.4916C20.4396 19.7104 20.1428 19.8333 19.8334 19.8333H12.8334C12.524 19.8333 12.2273 19.7104 12.0085 19.4916C11.7897 19.2728 11.6667 18.9761 11.6667 18.6666Z" fill="white"/>
</svg>
