<svg width="29" height="29" viewBox="0 0 29 29" fill="none" xmlns="http://www.w3.org/2000/svg">
<path d="M25.4384 19.0312L19.9375 13.5938L25.4384 8.15625L26.7344 9.43406L22.5294 13.5938L26.7344 17.7534L25.4384 19.0312ZM19.9375 27.1875H18.125V22.6562C18.125 21.4545 17.6476 20.3019 16.7978 19.4522C15.9481 18.6024 14.7955 18.125 13.5938 18.125H8.15625C6.95449 18.125 5.80195 18.6024 4.95217 19.4522C4.1024 20.3019 3.625 21.4545 3.625 22.6562V27.1875H1.8125V22.6562C1.8125 20.9738 2.48086 19.3602 3.67054 18.1705C4.86023 16.9809 6.47378 16.3125 8.15625 16.3125H13.5938C15.2762 16.3125 16.8898 16.9809 18.0795 18.1705C19.2691 19.3602 19.9375 20.9738 19.9375 22.6562V27.1875ZM10.875 3.625C11.7712 3.625 12.6473 3.89075 13.3924 4.38865C14.1376 4.88655 14.7184 5.59424 15.0613 6.42222C15.4043 7.25019 15.494 8.16128 15.3192 9.04025C15.1443 9.91923 14.7128 10.7266 14.0791 11.3603C13.4454 11.994 12.638 12.4256 11.759 12.6004C10.88 12.7753 9.96894 12.6855 9.14097 12.3426C8.31299 11.9996 7.6053 11.4188 7.1074 10.6737C6.6095 9.92852 6.34375 9.05245 6.34375 8.15625C6.34375 6.95449 6.82115 5.80195 7.67092 4.95217C8.5207 4.1024 9.67324 3.625 10.875 3.625ZM10.875 1.8125C9.62032 1.8125 8.39383 2.18455 7.3506 2.88161C6.30738 3.57867 5.49428 4.56943 5.01414 5.7286C4.534 6.88777 4.40837 8.16329 4.65314 9.39385C4.89792 10.6244 5.5021 11.7548 6.38929 12.642C7.27648 13.5291 8.40683 14.1333 9.6374 14.3781C10.868 14.6229 12.1435 14.4973 13.3026 14.0171C14.4618 13.537 15.4526 12.7239 16.1496 11.6806C16.8467 10.6374 17.2188 9.41093 17.2188 8.15625C17.2188 6.47378 16.5504 4.86023 15.3607 3.67054C14.171 2.48086 12.5575 1.8125 10.875 1.8125Z" fill="white"/>
</svg>
