<svg width="27" height="27" viewBox="0 0 27 27" fill="none" xmlns="http://www.w3.org/2000/svg">
<path fill-rule="evenodd" clip-rule="evenodd" d="M6.06769 2.81363C7.67756 2.67525 10.1548 2.53125 13.5 2.53125C13.8639 2.53125 14.4248 2.53294 14.9271 2.53631C15.3394 2.53856 15.7084 2.61338 16.0183 2.75963C17.4167 3.42056 18.711 4.38244 19.8231 5.499C20.9424 6.62231 21.9634 7.94869 22.5788 9.34763C22.6943 9.612 22.7546 9.92813 22.7599 10.296C22.7734 11.2764 22.7813 12.5173 22.7813 13.5C22.7813 17.856 22.6277 20.8108 22.4854 22.6131C22.4173 23.4737 21.7794 24.1138 20.9329 24.1864C19.3224 24.3248 16.8452 24.4688 13.5 24.4688C10.1548 24.4688 7.67756 24.3248 6.06769 24.1864C5.22056 24.1138 4.58269 23.4737 4.51519 22.6131C4.37175 20.8108 4.21875 17.856 4.21875 13.5C4.21875 9.144 4.37231 6.18919 4.51462 4.38694C4.58269 3.52631 5.22112 2.88619 6.06769 2.81363ZM13.5 0.28125C10.0901 0.28125 7.54875 0.4275 5.87475 0.5715C3.92344 0.739125 2.42606 2.26013 2.27194 4.20975C2.12456 6.07725 1.96875 9.09225 1.96875 13.5C1.96875 17.9083 2.12456 20.9228 2.27194 22.7903C2.42606 24.7399 3.92344 26.2609 5.87475 26.4285C7.54875 26.5719 10.0901 26.7188 13.5 26.7188C16.9099 26.7188 19.4513 26.5725 21.1253 26.4285C23.0766 26.2603 24.5739 24.7399 24.7281 22.7903C24.8754 20.9228 25.0313 17.9078 25.0313 13.5C25.0313 12.5078 25.0234 11.2568 25.0093 10.2645C25.0014 9.68063 24.9053 9.0495 24.6381 8.442C23.8759 6.70894 22.6592 5.15756 21.4172 3.9105C20.1516 2.64038 18.6486 1.51425 16.9791 0.725625C16.3136 0.410625 15.6083 0.29025 14.9417 0.286313C14.4611 0.283232 13.9806 0.281544 13.5 0.28125ZM15.5138 7.05206C16.7281 6.81519 17.9655 6.71725 19.2021 6.76013C19.4007 6.76646 19.5895 6.8482 19.73 6.98873C19.8706 7.12927 19.9523 7.31804 19.9586 7.51669C20.0013 8.75324 19.9032 9.99064 19.6661 11.205C19.5356 11.8665 18.7369 12.0589 18.2852 11.6072L17.6687 10.9913C16.9487 11.6387 15.9339 12.6191 15.1369 13.6496C14.3128 14.715 12.4993 14.6408 11.9109 13.2531C11.5988 12.5168 11.1724 11.5453 10.7758 10.7494C10.1942 11.2163 9.34875 12.0623 8.37169 13.5563C8.28065 13.6953 8.1631 13.8151 8.02575 13.9088C7.88841 14.0025 7.73397 14.0682 7.57124 14.1022C7.4085 14.1361 7.24067 14.1377 7.07733 14.1068C6.91398 14.076 6.75831 14.0132 6.61922 13.9222C6.48012 13.8311 6.36032 13.7136 6.26666 13.5762C6.17299 13.4389 6.10729 13.2844 6.07332 13.1217C6.03934 12.959 6.03775 12.7911 6.06863 12.6278C6.09951 12.4644 6.16227 12.3088 6.25331 12.1697C7.80469 9.79875 9.18675 8.68388 10.0575 8.17088C11.0633 7.578 12.195 8.0505 12.6709 8.91113C13.0449 9.58781 13.4612 10.4816 13.8144 11.2787C14.4628 10.5477 15.1513 9.8533 15.8766 9.19856L15.1116 8.43356C14.6593 7.98188 14.8528 7.18313 15.5138 7.05206ZM7.3125 16.1719C6.97684 16.1719 6.65492 16.3052 6.41757 16.5426C6.18022 16.7799 6.04687 17.1018 6.04687 17.4375C6.04687 17.7732 6.18022 18.0951 6.41757 18.3324C6.65492 18.5698 6.97684 18.7031 7.3125 18.7031H19.6875C20.0232 18.7031 20.3451 18.5698 20.5824 18.3324C20.8198 18.0951 20.9531 17.7732 20.9531 17.4375C20.9531 17.1018 20.8198 16.7799 20.5824 16.5426C20.3451 16.3052 20.0232 16.1719 19.6875 16.1719H7.3125ZM7.3125 20.1094C6.97684 20.1094 6.65492 20.2427 6.41757 20.4801C6.18022 20.7174 6.04687 21.0393 6.04687 21.375C6.04687 21.7107 6.18022 22.0326 6.41757 22.2699C6.65492 22.5073 6.97684 22.6406 7.3125 22.6406H19.6875C20.0232 22.6406 20.3451 22.5073 20.5824 22.2699C20.8198 22.0326 20.9531 21.7107 20.9531 21.375C20.9531 21.0393 20.8198 20.7174 20.5824 20.4801C20.3451 20.2427 20.0232 20.1094 19.6875 20.1094H7.3125Z" fill="white"/>
</svg>
