<svg width="76" height="76" viewBox="0 0 76 76" fill="none" xmlns="http://www.w3.org/2000/svg">
<circle cx="38" cy="38" r="38" fill="#CAFFD1"/>
<path d="M33.7498 45.0417C33.3318 45.0097 32.9429 44.8153 32.6665 44.5L26.1665 38C26.0216 37.6968 25.9744 37.3561 26.0312 37.0249C26.088 36.6937 26.2461 36.3883 26.4838 36.1506C26.7214 35.913 27.0268 35.7549 27.358 35.6981C27.6892 35.6413 28.0299 35.6885 28.3331 35.8333L33.6848 41.185L52.1665 22.8333C52.4697 22.6885 52.8104 22.6413 53.1416 22.6981C53.4728 22.7549 53.7782 22.913 54.0158 23.1506C54.2534 23.3883 54.4116 23.6937 54.4684 24.0249C54.5252 24.3561 54.478 24.6968 54.3331 25L34.8331 44.5C34.5567 44.8153 34.1678 45.0097 33.7498 45.0417Z" fill="#4CAF50"/>
<path d="M37.0002 57.5C33.5151 57.4944 30.0951 56.5549 27.0962 54.7792C24.0974 53.0035 21.6292 50.4565 19.9486 47.4033C18.6728 45.1275 17.8834 42.6117 17.6302 40.015C17.2337 36.2062 17.9674 32.3649 19.7398 28.9704C21.5122 25.5758 24.2449 22.7782 27.5969 20.9267C29.8727 19.6509 32.3886 18.8615 34.9852 18.6083C37.5726 18.3324 40.189 18.583 42.6769 19.345C42.8989 19.3894 43.1092 19.4796 43.2943 19.61C43.4793 19.7403 43.6351 19.9079 43.7517 20.102C43.8682 20.2961 43.9429 20.5124 43.971 20.737C43.999 20.9616 43.9799 21.1897 43.9147 21.4065C43.8495 21.6232 43.7397 21.824 43.5924 21.9959C43.4451 22.1678 43.2635 22.307 43.0593 22.4047C42.855 22.5023 42.6326 22.5561 42.4063 22.5628C42.18 22.5695 41.9549 22.5288 41.7452 22.4433C39.6408 21.8094 37.4307 21.6031 35.2452 21.8367C33.0847 22.0561 30.9913 22.7121 29.0919 23.765C27.2614 24.7749 25.6429 26.1285 24.3252 27.7517C22.9686 29.4052 21.9555 31.3128 21.3454 33.3627C20.7352 35.4127 20.5403 37.5638 20.7719 39.69C20.9913 41.8505 21.6474 43.944 22.7002 45.8433C23.7101 47.6739 25.0638 49.2924 26.6869 50.61C28.3404 51.9666 30.248 52.9797 32.298 53.5899C34.3479 54.2 36.499 54.395 38.6252 54.1633C40.7858 53.9439 42.8792 53.2879 44.7786 52.235C46.6091 51.2251 48.2276 49.8715 49.5452 48.2483C50.9019 46.5948 51.9149 44.6872 52.5251 42.6373C53.1352 40.5873 53.3302 38.4363 53.0986 36.31C53.0555 35.8589 53.1933 35.4092 53.4818 35.0597C53.7703 34.7103 54.1858 34.4898 54.6369 34.4467C55.088 34.4036 55.5377 34.5414 55.8872 34.8299C56.2366 35.1184 56.4571 35.5339 56.5002 35.985C56.8948 39.7961 56.1578 43.639 54.3814 47.0338C52.6051 50.4286 49.8679 53.2248 46.5119 55.0733C44.2119 56.4013 41.6572 57.2283 39.0152 57.5H37.0002Z" fill="#4CAF50"/>
</svg>
