<svg width="28" height="28" viewBox="0 0 28 28" fill="none" xmlns="http://www.w3.org/2000/svg">
<path d="M12.8333 27.5216V23.3216C6.98825 23.0183 2.33325 18.165 2.33325 12.25C2.33325 6.13663 7.30325 1.16663 13.4166 1.16663C19.5299 1.16663 24.4999 6.13663 24.4999 12.25C24.4999 18.025 20.4866 23.835 14.5016 26.7166L12.8333 27.5216ZM13.4166 3.49996C8.58659 3.49996 4.66659 7.41996 4.66659 12.25C4.66659 17.08 8.58659 21 13.4166 21H15.1666V23.6833C19.4133 21 22.1666 16.59 22.1666 12.25C22.1666 7.41996 18.2466 3.49996 13.4166 3.49996ZM12.2499 16.9166H14.5833V19.25H12.2499V16.9166ZM14.5833 15.1666H12.2499C12.2499 11.375 15.7499 11.6666 15.7499 9.33329C15.7499 8.04996 14.6999 6.99996 13.4166 6.99996C12.1333 6.99996 11.0833 8.04996 11.0833 9.33329H8.74992C8.74992 6.75496 10.8383 4.66663 13.4166 4.66663C15.9949 4.66663 18.0833 6.75496 18.0833 9.33329C18.0833 12.25 14.5833 12.5416 14.5833 15.1666Z" fill="white"/>
</svg>
