<svg width="30" height="30" viewBox="0 0 30 30" fill="none" xmlns="http://www.w3.org/2000/svg">
<path d="M14.125 20C13.3333 19.9583 12.5675 19.8908 11.8275 19.7975C11.0875 19.7042 10.3846 19.5792 9.71875 19.4225C10.3854 19.5792 11.0888 19.7042 11.8288 19.7975C12.5688 19.8908 13.3342 19.9583 14.125 20ZM15 11.2812C16.8542 11.2812 18.7188 11.005 20.5938 10.4525C22.4688 9.9 23.5208 9.34292 23.75 8.78125C23.5208 8.17708 22.4742 7.60417 20.61 7.0625C18.7458 6.52083 16.8758 6.25 15 6.25C13.1042 6.25 11.245 6.51583 9.4225 7.0475C7.6 7.57917 6.5425 8.15708 6.25 8.78125C6.54167 9.34375 7.59917 9.90125 9.4225 10.4537C11.2458 11.0062 13.105 11.2821 15 11.2812ZM21.875 26.25H23.125V21.125L25.375 23.375L26.25 22.5L22.5 18.75L18.75 22.5L19.625 23.375L21.875 21.125V26.25ZM22.5 28.75C20.7708 28.75 19.2971 28.1404 18.0788 26.9213C16.8604 25.7021 16.2508 24.2283 16.25 22.5C16.2492 20.7717 16.8588 19.2979 18.0788 18.0788C19.2987 16.8596 20.7725 16.25 22.5 16.25C24.2275 16.25 25.7017 16.8596 26.9225 18.0788C28.1433 19.2979 28.7525 20.7717 28.75 22.5C28.7475 24.2283 28.1379 25.7025 26.9213 26.9225C25.7046 28.1425 24.2308 28.7517 22.5 28.75ZM13.8438 23.7188C13.9062 24.1771 14 24.6146 14.125 25.0312C14.25 25.4479 14.4062 25.8542 14.5938 26.25C13.0729 26.2292 11.6562 26.0833 10.3437 25.8125C9.03125 25.5417 7.88542 25.1825 6.90625 24.735C5.92708 24.2875 5.15625 23.7667 4.59375 23.1725C4.03125 22.5783 3.75 21.9375 3.75 21.25V8.75C3.75 7.375 4.84917 6.19792 7.0475 5.21875C9.24583 4.23958 11.8967 3.75 15 3.75C18.1033 3.75 20.7546 4.23958 22.9538 5.21875C25.1529 6.19792 26.2517 7.375 26.25 8.75V14.5938C25.8542 14.4062 25.4479 14.25 25.0312 14.125C24.6146 14 24.1875 13.9062 23.75 13.8438V11.9062C22.6667 12.5104 21.375 12.9688 19.875 13.2812C18.375 13.5938 16.75 13.75 15 13.75C13.2292 13.75 11.5938 13.5938 10.0938 13.2812C8.59375 12.9688 7.3125 12.5104 6.25 11.9062V15.0625C7.3125 16.0417 8.67167 16.6929 10.3275 17.0162C11.9833 17.3396 13.5408 17.5008 15 17.5H15.3438C15.0729 17.875 14.8388 18.2708 14.6413 18.6875C14.4438 19.1042 14.2717 19.5417 14.125 20C12.5417 19.9167 11.0729 19.7242 9.71875 19.4225C8.36458 19.1208 7.20833 18.6987 6.25 18.1562V21.25C6.39583 21.5208 6.70833 21.7971 7.1875 22.0788C7.66667 22.3604 8.25 22.6104 8.9375 22.8288C9.625 23.0471 10.3908 23.2346 11.235 23.3912C12.0792 23.5479 12.9487 23.6571 13.8438 23.7188Z" fill="white"/>
</svg>
