<svg width="32" height="32" viewBox="0 0 32 32" fill="none" xmlns="http://www.w3.org/2000/svg">
<path d="M16 19.9998V2.6665M16 2.6665L20 7.33317M16 2.6665L12 7.33317" stroke="black" stroke-width="2" stroke-linecap="round" stroke-linejoin="round"/>
<path d="M10.6667 29.3331H21.3334C25.1041 29.3331 26.9907 29.3331 28.1614 28.1624C29.3334 26.9891 29.3334 25.1051 29.3334 21.3331V19.9998C29.3334 16.2291 29.3334 14.3438 28.1614 13.1718C27.1374 12.1478 25.5667 12.0184 22.6667 12.0024M9.33341 12.0024C6.43341 12.0184 4.86275 12.1478 3.83875 13.1718C2.66675 14.3438 2.66675 16.2291 2.66675 19.9998V21.3331C2.66675 25.1051 2.66675 26.9904 3.83875 28.1624C4.23875 28.5624 4.72141 28.8251 5.33341 28.9984" stroke="black" stroke-width="2" stroke-linecap="round"/>
</svg>
