<svg width="24" height="24" viewBox="0 0 24 24" fill="none" xmlns="http://www.w3.org/2000/svg">
<path d="M4.01121 20.918H19.989C20.2485 20.9179 20.5036 20.8506 20.7293 20.7224C20.9549 20.5943 21.1435 20.4099 21.2766 20.1871C21.4096 19.9643 21.4826 19.7108 21.4884 19.4513C21.4941 19.1919 21.4325 18.9354 21.3095 18.7069L13.321 3.87094C12.7543 2.81906 11.2459 2.81906 10.6792 3.87094L2.69074 18.7069C2.56772 18.9354 2.50608 19.1919 2.51185 19.4513C2.51761 19.7108 2.59059 19.9643 2.72365 20.1871C2.8567 20.4099 3.04529 20.5943 3.27097 20.7224C3.49664 20.8506 3.7517 20.9179 4.01121 20.918Z" stroke="#E05454" stroke-width="2" stroke-linecap="round" stroke-linejoin="round"/>
<path d="M11.7309 9.1588L12 14.8776L12.2686 9.16115C12.2702 9.1246 12.2644 9.0881 12.2515 9.05388C12.2385 9.01966 12.2188 8.98843 12.1934 8.96211C12.168 8.93578 12.1375 8.91492 12.1037 8.90078C12.07 8.88665 12.0337 8.87954 11.9971 8.8799C11.9612 8.88025 11.9257 8.8878 11.8927 8.9021C11.8597 8.9164 11.83 8.93716 11.8052 8.96316C11.7803 8.98915 11.761 9.01986 11.7482 9.05346C11.7355 9.08707 11.7296 9.12288 11.7309 9.1588Z" stroke="#E05454" stroke-width="2" stroke-linecap="round" stroke-linejoin="round"/>
<path d="M12 18.6211C11.8146 18.6211 11.6333 18.5661 11.4792 18.4631C11.325 18.3601 11.2048 18.2137 11.1339 18.0424C11.0629 17.8711 11.0443 17.6826 11.0805 17.5007C11.1167 17.3188 11.206 17.1518 11.3371 17.0207C11.4682 16.8896 11.6352 16.8003 11.8171 16.7641C11.999 16.7279 12.1875 16.7465 12.3588 16.8175C12.5301 16.8884 12.6765 17.0086 12.7795 17.1627C12.8825 17.3169 12.9375 17.4982 12.9375 17.6836C12.9375 17.9322 12.8387 18.1707 12.6629 18.3465C12.4871 18.5223 12.2486 18.6211 12 18.6211Z" fill="#E05454"/>
</svg>
