<svg width="31" height="31" viewBox="0 0 31 31" fill="none" xmlns="http://www.w3.org/2000/svg">
<path d="M22.6688 5.23125H20.3438V4.06875C20.3438 3.76044 20.2213 3.46475 20.0033 3.24674C19.7853 3.02873 19.4896 2.90625 19.1812 2.90625C18.8729 2.90625 18.5772 3.02873 18.3592 3.24674C18.1412 3.46475 18.0188 3.76044 18.0188 4.06875V5.23125H11.0437V4.06875C11.0437 3.76044 10.9213 3.46475 10.7033 3.24674C10.4853 3.02873 10.1896 2.90625 9.88125 2.90625C9.57294 2.90625 9.27725 3.02873 9.05924 3.24674C8.84123 3.46475 8.71875 3.76044 8.71875 4.06875V5.23125H6.39375C5.46881 5.23125 4.58175 5.59868 3.92772 6.25272C3.27368 6.90675 2.90625 7.79381 2.90625 8.71875V22.6688C2.90625 23.5937 3.27368 24.4808 3.92772 25.1348C4.58175 25.7888 5.46881 26.1562 6.39375 26.1562H22.6688C23.5937 26.1562 24.4808 25.7888 25.1348 25.1348C25.7888 24.4808 26.1562 23.5937 26.1562 22.6688V8.71875C26.1562 7.79381 25.7888 6.90675 25.1348 6.25272C24.4808 5.59868 23.5937 5.23125 22.6688 5.23125ZM23.8313 22.6688C23.8313 22.9771 23.7088 23.2728 23.4908 23.4908C23.2728 23.7088 22.9771 23.8313 22.6688 23.8313H6.39375C6.08544 23.8313 5.78975 23.7088 5.57174 23.4908C5.35373 23.2728 5.23125 22.9771 5.23125 22.6688V14.5312H23.8313V22.6688ZM23.8313 12.2063H5.23125V8.71875C5.23125 8.41044 5.35373 8.11475 5.57174 7.89674C5.78975 7.67873 6.08544 7.55625 6.39375 7.55625H8.71875V8.71875C8.71875 9.02706 8.84123 9.32275 9.05924 9.54076C9.27725 9.75877 9.57294 9.88125 9.88125 9.88125C10.1896 9.88125 10.4853 9.75877 10.7033 9.54076C10.9213 9.32275 11.0437 9.02706 11.0437 8.71875V7.55625H18.0188V8.71875C18.0188 9.02706 18.1412 9.32275 18.3592 9.54076C18.5772 9.75877 18.8729 9.88125 19.1812 9.88125C19.4896 9.88125 19.7853 9.75877 20.0033 9.54076C20.2213 9.32275 20.3438 9.02706 20.3438 8.71875V7.55625H22.6688C22.9771 7.55625 23.2728 7.67873 23.4908 7.89674C23.7088 8.11475 23.8313 8.41044 23.8313 8.71875V12.2063Z" fill="white"/>
</svg>
