<svg width="59" height="59" viewBox="0 0 59 59" fill="none" xmlns="http://www.w3.org/2000/svg">
<g filter="url(#filter0_d_6819_5)">
<circle cx="29.5" cy="26.5" r="24.5" fill="#FFC7C7"/>
</g>
<path d="M19.0312 33.875C19.0312 34.4281 19.4781 34.875 20.0312 34.875H37.9687C38.5218 34.875 38.9687 34.4281 38.9687 33.875V26.5938C38.9687 21.0875 34.5062 16.625 29 16.625C23.4937 16.625 19.0312 21.0875 19.0312 26.5938V33.875ZM21.2812 26.5938C21.2812 22.3313 24.7375 18.875 29 18.875C33.2625 18.875 36.7187 22.3313 36.7187 26.5938V32.625H25.625V27.2812C25.625 27.1094 25.4843 26.9688 25.3125 26.9688H23.9375C23.7656 26.9688 23.625 27.1094 23.625 27.2812V32.625H21.2812V26.5938ZM19.7781 18.7031L21.0156 17.4656C21.1125 17.3687 21.1125 17.2094 21.0156 17.1125L18.8937 14.9906C18.8467 14.9441 18.7833 14.918 18.7172 14.918C18.651 14.918 18.5876 14.9441 18.5406 14.9906L17.3031 16.2281C17.2566 16.2751 17.2305 16.3386 17.2305 16.4047C17.2305 16.4708 17.2566 16.5343 17.3031 16.5813L19.425 18.7031C19.5218 18.8 19.6781 18.8 19.7781 18.7031ZM40.7031 16.2281L39.4656 14.9906C39.4186 14.9441 39.3552 14.918 39.289 14.918C39.2229 14.918 39.1595 14.9441 39.1125 14.9906L36.9906 17.1125C36.9441 17.1595 36.918 17.2229 36.918 17.2891C36.918 17.3552 36.9441 17.4186 36.9906 17.4656L38.2281 18.7031C38.325 18.8 38.4843 18.8 38.5812 18.7031L40.7031 16.5813C40.8 16.4813 40.8 16.325 40.7031 16.2281ZM39 36.875H19C18.4468 36.875 18 37.3219 18 37.875V38.625C18 38.7625 18.1125 38.875 18.25 38.875H39.75C39.8875 38.875 40 38.7625 40 38.625V37.875C40 37.3219 39.5531 36.875 39 36.875ZM28.125 14.625H29.875C30.0125 14.625 30.125 14.5125 30.125 14.375V11.375C30.125 11.2375 30.0125 11.125 29.875 11.125H28.125C27.9875 11.125 27.875 11.2375 27.875 11.375V14.375C27.875 14.5125 27.9875 14.625 28.125 14.625Z" fill="#17237E"/>
<defs>
<filter id="filter0_d_6819_5" x="0" y="0" width="59" height="59" filterUnits="userSpaceOnUse" color-interpolation-filters="sRGB">
<feFlood flood-opacity="0" result="BackgroundImageFix"/>
<feColorMatrix in="SourceAlpha" type="matrix" values="0 0 0 0 0 0 0 0 0 0 0 0 0 0 0 0 0 0 127 0" result="hardAlpha"/>
<feMorphology radius="4" operator="erode" in="SourceAlpha" result="effect1_dropShadow_6819_5"/>
<feOffset dy="3"/>
<feGaussianBlur stdDeviation="4.5"/>
<feComposite in2="hardAlpha" operator="out"/>
<feColorMatrix type="matrix" values="0 0 0 0 0.0901961 0 0 0 0 0.137255 0 0 0 0 0.494118 0 0 0 1 0"/>
<feBlend mode="normal" in2="BackgroundImageFix" result="effect1_dropShadow_6819_5"/>
<feBlend mode="normal" in="SourceGraphic" in2="effect1_dropShadow_6819_5" result="shape"/>
</filter>
</defs>
</svg>
