<svg width="25" height="25" viewBox="0 0 25 25" fill="none" xmlns="http://www.w3.org/2000/svg">
<path d="M8.75008 3.125H5.83341C5.39139 3.125 4.96746 3.30059 4.6549 3.61316C4.34234 3.92572 4.16675 4.34964 4.16675 4.79167V9.79167C4.16675 10.0105 4.20986 10.2273 4.29362 10.4295C4.37737 10.6317 4.50014 10.8154 4.6549 10.9702C4.80967 11.1249 4.9934 11.2477 5.19561 11.3315C5.39782 11.4152 5.61454 11.4583 5.83341 11.4583H8.75008C8.96895 11.4583 9.18568 11.4152 9.38789 11.3315C9.5901 11.2477 9.77383 11.1249 9.92859 10.9702C10.0834 10.8154 10.2061 10.6317 10.2899 10.4295C10.3736 10.2273 10.4167 10.0105 10.4167 9.79167V4.79167C10.4167 4.34964 10.2412 3.92572 9.92859 3.61316C9.61603 3.30059 9.19211 3.125 8.75008 3.125ZM8.75008 15.625H5.83341C5.39139 15.625 4.96746 15.8006 4.6549 16.1132C4.34234 16.4257 4.16675 16.8496 4.16675 17.2917V20.2083C4.16675 20.6504 4.34234 21.0743 4.6549 21.3868C4.96746 21.6994 5.39139 21.875 5.83341 21.875H8.75008C9.19211 21.875 9.61603 21.6994 9.92859 21.3868C10.2412 21.0743 10.4167 20.6504 10.4167 20.2083V17.2917C10.4167 16.8496 10.2412 16.4257 9.92859 16.1132C9.61603 15.8006 9.19211 15.625 8.75008 15.625ZM19.1667 3.125H16.2501C15.8081 3.125 15.3841 3.30059 15.0716 3.61316C14.759 3.92572 14.5834 4.34964 14.5834 4.79167V7.70833C14.5834 8.15036 14.759 8.57428 15.0716 8.88684C15.3841 9.19941 15.8081 9.375 16.2501 9.375H19.1667C19.6088 9.375 20.0327 9.19941 20.3453 8.88684C20.6578 8.57428 20.8334 8.15036 20.8334 7.70833V4.79167C20.8334 4.34964 20.6578 3.92572 20.3453 3.61316C20.0327 3.30059 19.6088 3.125 19.1667 3.125ZM19.1667 13.5417H16.2501C15.8081 13.5417 15.3841 13.7173 15.0716 14.0298C14.759 14.3424 14.5834 14.7663 14.5834 15.2083V20.2083C14.5834 20.6504 14.759 21.0743 15.0716 21.3868C15.3841 21.6994 15.8081 21.875 16.2501 21.875H19.1667C19.6088 21.875 20.0327 21.6994 20.3453 21.3868C20.6578 21.0743 20.8334 20.6504 20.8334 20.2083V15.2083C20.8334 14.7663 20.6578 14.3424 20.3453 14.0298C20.0327 13.7173 19.6088 13.5417 19.1667 13.5417Z" stroke="white" stroke-width="2" stroke-miterlimit="10" stroke-linejoin="round"/>
</svg>
