<svg width="26" height="26" viewBox="0 0 26 26" fill="none" xmlns="http://www.w3.org/2000/svg">
<path d="M5.41667 20.5833H6.96042L17.55 9.99375L16.0063 8.45L5.41667 19.0396V20.5833ZM4.33333 22.75C4.02639 22.75 3.76928 22.646 3.562 22.438C3.35472 22.23 3.25072 21.9729 3.25 21.6667V19.0396C3.25 18.7507 3.30417 18.4752 3.4125 18.213C3.52083 17.9508 3.67431 17.7208 3.87292 17.5229L17.55 3.87292C17.7667 3.67431 18.0061 3.52083 18.2683 3.4125C18.5304 3.30417 18.8056 3.25 19.0938 3.25C19.3819 3.25 19.6618 3.30417 19.9333 3.4125C20.2049 3.52083 20.4396 3.68333 20.6375 3.9L22.1271 5.41667C22.3438 5.61528 22.5016 5.85 22.6005 6.12083C22.6994 6.39167 22.7493 6.6625 22.75 6.93333C22.75 7.22222 22.7002 7.49775 22.6005 7.75992C22.5008 8.02208 22.343 8.26114 22.1271 8.47708L8.47708 22.1271C8.27847 22.3257 8.04808 22.4792 7.78592 22.5875C7.52375 22.6958 7.24858 22.75 6.96042 22.75H4.33333ZM16.7646 9.23542L16.0063 8.45L17.55 9.99375L16.7646 9.23542Z" fill="#333333"/>
</svg>
