<svg width="23" height="23" viewBox="0 0 23 23" fill="none" xmlns="http://www.w3.org/2000/svg">
<g clip-path="url(#clip0_6718_1200)">
<path d="M16.0937 13.0333C16.2769 12.5429 16.3699 12.0235 16.3684 11.5C16.3684 10.3376 15.9066 9.2228 15.0847 8.40087C14.2628 7.57894 13.148 7.11719 11.9856 7.11719C11.4686 7.11793 10.9558 7.21096 10.4714 7.39191L11.5 8.45246C11.6565 8.42799 11.8145 8.41518 11.9728 8.41413C12.7947 8.41242 13.5839 8.73597 14.168 9.31413C14.7522 9.89229 15.0839 10.6781 15.0906 11.5C15.0896 11.6583 15.0767 11.8163 15.0523 11.9727L16.0937 13.0333Z" fill="black"/>
<path d="M21.9074 11.1997C19.7543 7.2194 15.9785 4.81079 11.8002 4.81079C10.6625 4.81325 9.53249 4.99655 8.45239 5.35385L9.481 6.38885C10.2387 6.19318 11.0177 6.09231 11.8002 6.08857C15.3971 6.08857 18.6682 8.09468 20.6168 11.4744C19.9014 12.7278 18.9539 13.8336 17.8249 14.7327L18.7321 15.64C20.0397 14.5857 21.1254 13.2829 21.9266 11.8066L22.0927 11.5L21.9074 11.1997Z" fill="black"/>
<path d="M3.11134 3.69279L5.96079 6.54223C4.15933 7.70144 2.68722 9.30558 1.68662 11.1997L1.52051 11.5L1.68662 11.8067C3.83967 15.787 7.61551 18.1956 11.7938 18.1956C13.4248 18.1959 15.0346 17.8268 16.5025 17.1158L19.6969 20.3103L20.815 19.352L4.20384 2.74084L3.11134 3.69279ZM9.34051 9.92196L13.5891 14.1706C13.1092 14.468 12.5565 14.6272 11.9919 14.6306C11.5817 14.6306 11.1755 14.5495 10.7968 14.3919C10.418 14.2343 10.0742 14.0034 9.78501 13.7125C9.49584 13.4215 9.26705 13.0763 9.11182 12.6966C8.95659 12.3169 8.87798 11.9102 8.88051 11.5C8.88738 10.9419 9.04643 10.3963 9.34051 9.92196ZM8.41412 8.99557C7.8164 9.83852 7.53624 10.8658 7.62325 11.8955C7.71026 12.9252 8.15882 13.8909 8.88952 14.6216C9.62022 15.3523 10.5859 15.8008 11.6156 15.8878C12.6453 15.9748 13.6726 15.6947 14.5155 15.097L15.5377 16.1192C14.3544 16.6252 13.0808 16.886 11.7938 16.8858C8.1969 16.8858 4.92579 14.8797 2.97717 11.5C3.91255 9.84433 5.25929 8.45798 6.88717 7.47501L8.41412 8.99557Z" fill="black"/>
</g>
<defs>
<clipPath id="clip0_6718_1200">
<rect width="23" height="23" fill="white"/>
</clipPath>
</defs>
</svg>
