<svg width="30" height="30" viewBox="0 0 30 30" fill="none" xmlns="http://www.w3.org/2000/svg">
<path d="M4.12988 15.19C4.12988 15.88 4.48988 16.47 5.20988 16.96C6.52988 17.89 8.51988 18.35 11.1899 18.35C12.3899 18.35 13.4999 18.25 14.5299 18.04C15.6099 17.81 16.4999 17.44 17.1799 16.94C17.8599 16.44 18.2099 15.86 18.2099 15.18C18.2099 14.97 18.1699 14.77 18.0899 14.56C19.4799 14.22 20.5699 13.76 21.3599 13.18C22.5449 12.31 22.5499 11.93 22.5499 11.18C22.5499 10.99 22.5199 10.79 22.4599 10.58C24.7499 9.77001 25.8899 8.68001 25.8899 7.30001C25.8899 6.42001 25.3899 5.64001 24.3999 4.96001C22.4499 3.66001 19.5899 3.01001 15.8199 3.01001C14.0399 3.01001 12.4299 3.17001 10.9899 3.48001C9.41988 3.80001 8.15988 4.30001 7.19988 4.98001C6.23988 5.66001 5.75988 6.44001 5.75988 7.31001C5.75988 7.83001 5.91988 8.30001 6.23988 8.73001C5.05988 9.40001 4.46988 10.22 4.46988 11.19C4.46988 11.94 4.83988 12.6 5.56988 13.17C4.60988 13.73 4.12988 14.4 4.12988 15.19ZM4.72988 19.69C4.72988 20.42 5.17988 21 6.07988 21.41C6.97988 21.82 8.11988 22.03 9.48988 22.03C10.8799 22.03 12.0199 21.82 12.9299 21.41C13.8399 21 14.2899 20.42 14.2899 19.69C14.2899 19.42 14.1999 19.19 14.0299 19C13.8599 18.81 13.6299 18.72 13.3599 18.72C13.1399 18.72 12.9399 18.8 12.7599 18.95C12.5799 19.1 12.4699 19.3 12.4199 19.52C12.2199 19.68 11.8599 19.82 11.3199 19.95C10.7799 20.08 10.1699 20.15 9.48988 20.15C8.38988 20.15 7.48988 19.99 6.80988 19.68C6.96988 19.52 7.04988 19.32 7.06988 19.08C7.08988 18.84 7.02988 18.63 6.91988 18.46C6.75988 18.25 6.55988 18.11 6.30988 18.06C6.05988 18.01 5.82988 18.06 5.60988 18.19C5.01988 18.6 4.72988 19.09 4.72988 19.69ZM6.00988 15.19C6.00988 15.18 6.06988 15.12 6.19988 15.01C6.28988 14.92 6.47988 14.81 6.75988 14.67C7.03988 14.53 7.36988 14.42 7.71988 14.32L7.83988 14.26C9.45988 14.8 11.3499 15.07 13.5099 15.07C14.4599 15.07 15.3199 15.02 16.0899 14.91L16.3499 15.14C16.2599 15.3 16.0499 15.46 15.7199 15.64C15.3199 15.85 14.6999 16.05 13.8599 16.21C13.0199 16.37 12.1299 16.46 11.1899 16.46C10.2499 16.46 9.35988 16.38 8.51988 16.21C7.67988 16.04 7.04988 15.85 6.63988 15.64C6.29988 15.5 6.08988 15.35 6.00988 15.19ZM6.11988 23.61C6.11988 24.24 6.47988 24.73 7.19988 25.07C7.91988 25.41 8.80988 25.58 9.86988 25.58C10.9499 25.58 11.8599 25.41 12.5899 25.07C13.3199 24.73 13.6899 24.24 13.6899 23.61C13.6899 23.36 13.5999 23.13 13.4099 22.94C13.2199 22.75 12.9999 22.65 12.7499 22.65C12.2799 22.65 11.9699 22.89 11.8299 23.37C11.4399 23.61 10.7899 23.74 9.86988 23.74C9.06988 23.74 8.42988 23.62 7.94988 23.37C7.79988 22.89 7.49988 22.65 7.02988 22.65C6.77988 22.65 6.55988 22.74 6.38988 22.93C6.21988 23.12 6.11988 23.34 6.11988 23.61ZM6.32988 11.19C6.32988 11.11 6.37988 11.02 6.47988 10.91C6.71988 10.61 7.19988 10.31 7.89988 10.03C9.81988 11.06 12.4599 11.57 15.8099 11.57C17.5199 11.57 19.1299 11.41 20.6299 11.1V11.19C20.6299 11.34 20.5399 11.49 20.3499 11.64C19.9399 12 19.1799 12.34 18.0599 12.67C16.8499 13.03 15.3299 13.21 13.4999 13.21C11.6599 13.21 10.1399 13.03 8.92988 12.67C7.76988 12.35 6.99988 12.01 6.60988 11.65C6.41988 11.5 6.32988 11.35 6.32988 11.19ZM7.62988 7.31001C7.62988 7.13001 7.74988 6.94001 7.97988 6.72001C8.42988 6.30001 9.32988 5.90001 10.6599 5.51001C12.0899 5.09001 13.7999 4.88001 15.7999 4.88001C17.8099 4.88001 19.5399 5.09001 20.9899 5.51001C22.3399 5.90001 23.2299 6.31001 23.6699 6.73001C23.8899 6.95001 24.0099 7.15001 24.0099 7.32001C24.0099 7.49001 23.8999 7.67001 23.6699 7.88001C23.2299 8.30001 22.3399 8.71001 20.9899 9.11001C19.5399 9.53001 17.8199 9.74001 15.7999 9.74001C13.7999 9.74001 12.0799 9.53001 10.6599 9.11001C9.31988 8.71001 8.41988 8.30001 7.97988 7.87001C7.74988 7.66001 7.62988 7.48001 7.62988 7.31001Z" fill="white"/>
</svg>
