<svg width="28" height="28" viewBox="0 0 28 28" fill="none" xmlns="http://www.w3.org/2000/svg">
<path d="M11.6668 25.6667V18.0017M14.0002 12.8334H14.0118M14.0002 8.16675H14.0118M16.3335 18.0017V25.6667M17.5002 18.6667C16.4904 17.9095 15.2623 17.5001 14.0002 17.5001C12.738 17.5001 11.5099 17.9095 10.5002 18.6667M18.6668 12.8334H18.6785M18.6668 8.16675H18.6785M9.3335 12.8334H9.34516M9.3335 8.16675H9.34516" stroke="white" stroke-width="2.66667" stroke-linecap="round" stroke-linejoin="round"/>
<path d="M21.0001 2.33337H7.00008C5.71142 2.33337 4.66675 3.37804 4.66675 4.66671V23.3334C4.66675 24.622 5.71142 25.6667 7.00008 25.6667H21.0001C22.2887 25.6667 23.3334 24.622 23.3334 23.3334V4.66671C23.3334 3.37804 22.2887 2.33337 21.0001 2.33337Z" stroke="white" stroke-width="2.66667" stroke-linecap="round" stroke-linejoin="round"/>
</svg>
