<svg width="21" height="21" viewBox="0 0 21 21" fill="none" xmlns="http://www.w3.org/2000/svg">
<path d="M10.5 2.84375C10.674 2.84375 10.841 2.91289 10.964 3.03596C11.0871 3.15903 11.1562 3.32595 11.1562 3.5C11.1562 3.67405 11.0871 3.84097 10.964 3.96404C10.841 4.08711 10.674 4.15625 10.5 4.15625C8.81753 4.15625 7.20398 4.82461 6.01429 6.01429C4.82461 7.20398 4.15625 8.81753 4.15625 10.5C4.15625 12.1825 4.82461 13.796 6.01429 14.9857C7.20398 16.1754 8.81753 16.8438 10.5 16.8438C10.674 16.8438 10.841 16.9129 10.964 17.036C11.0871 17.159 11.1562 17.326 11.1562 17.5C11.1562 17.674 11.0871 17.841 10.964 17.964C10.841 18.0871 10.674 18.1562 10.5 18.1562C8.46944 18.1562 6.52204 17.3496 5.08621 15.9138C3.65039 14.478 2.84375 12.5306 2.84375 10.5C2.84375 8.46944 3.65039 6.52204 5.08621 5.08621C6.52204 3.65039 8.46944 2.84375 10.5 2.84375Z" fill="black"/>
<path d="M14.4112 8.33874C14.2953 8.21433 14.2322 8.04979 14.2352 7.87978C14.2382 7.70977 14.3071 7.54756 14.4273 7.42732C14.5476 7.30708 14.7098 7.23821 14.8798 7.23521C15.0498 7.23221 15.2143 7.29532 15.3388 7.41124L17.9638 10.0362C18.0866 10.1593 18.1557 10.3261 18.1557 10.5C18.1557 10.6739 18.0866 10.8407 17.9638 10.9637L15.3388 13.5887C15.2787 13.6532 15.2062 13.7049 15.1257 13.7408C15.0452 13.7767 14.9583 13.796 14.8702 13.7975C14.7821 13.7991 14.6946 13.7829 14.6129 13.7498C14.5311 13.7168 14.4569 13.6677 14.3946 13.6054C14.3323 13.5431 14.2831 13.4689 14.2501 13.3871C14.2171 13.3054 14.2009 13.2179 14.2025 13.1298C14.204 13.0417 14.2233 12.9548 14.2592 12.8743C14.2951 12.7938 14.3468 12.7213 14.4112 12.6612L15.9163 11.1562H8.75C8.57595 11.1562 8.40903 11.0871 8.28596 10.964C8.16289 10.841 8.09375 10.674 8.09375 10.5C8.09375 10.3259 8.16289 10.159 8.28596 10.0359C8.40903 9.91288 8.57595 9.84374 8.75 9.84374H15.9163L14.4112 8.33874Z" fill="black"/>
</svg>
