<svg width="23" height="23" viewBox="0 0 23 23" fill="none" xmlns="http://www.w3.org/2000/svg">
<path d="M3.83325 17.25C3.83325 16.2333 4.23712 15.2583 4.95601 14.5394C5.6749 13.8205 6.64992 13.4166 7.66659 13.4166H15.3333C16.3499 13.4166 17.3249 13.8205 18.0438 14.5394C18.7627 15.2583 19.1666 16.2333 19.1666 17.25C19.1666 17.7583 18.9647 18.2458 18.6052 18.6052C18.2458 18.9647 17.7583 19.1666 17.2499 19.1666H5.74992C5.24159 19.1666 4.75408 18.9647 4.39463 18.6052C4.03519 18.2458 3.83325 17.7583 3.83325 17.25Z" stroke="black" stroke-width="2" stroke-linejoin="round"/>
<path d="M11.5 9.58331C13.0878 9.58331 14.375 8.29613 14.375 6.70831C14.375 5.12049 13.0878 3.83331 11.5 3.83331C9.91218 3.83331 8.625 5.12049 8.625 6.70831C8.625 8.29613 9.91218 9.58331 11.5 9.58331Z" stroke="black" stroke-width="2"/>
</svg>
