<svg width="27" height="27" viewBox="0 0 27 27" fill="none" xmlns="http://www.w3.org/2000/svg">
<path d="M13.8317 10.1413C13.1393 10.073 12.4426 10.2203 11.8371 10.5631C11.2316 10.906 10.7468 11.4276 10.4492 12.0566C10.1516 12.6856 10.0557 13.3912 10.1747 14.0768C10.2936 14.7624 10.6215 15.3945 11.1135 15.8865C11.6056 16.3785 12.2376 16.7064 12.9232 16.8254C13.6088 16.9443 14.3144 16.8484 14.9434 16.5508C15.5724 16.2532 16.094 15.7685 16.4369 15.1629C16.7797 14.5574 16.9271 13.8608 16.8587 13.1683C16.7807 12.392 16.4367 11.6666 15.8851 11.1149C15.3334 10.5633 14.608 10.2193 13.8317 10.1413ZM21.9581 13.5C21.956 13.8669 21.929 14.2331 21.8774 14.5963L24.2615 16.4663C24.3653 16.5524 24.4353 16.6724 24.4589 16.8052C24.4826 16.9379 24.4584 17.0748 24.3907 17.1914L22.1353 21.0938C22.0668 21.2092 21.9597 21.2969 21.8329 21.3411C21.7062 21.3854 21.5679 21.3835 21.4423 21.3358L19.0746 20.3824C18.944 20.3304 18.8026 20.3116 18.663 20.3277C18.5233 20.3438 18.3899 20.3943 18.2746 20.4746C17.9132 20.7235 17.5335 20.9446 17.1387 21.1359C17.0146 21.1963 16.9072 21.2862 16.8261 21.3979C16.745 21.5095 16.6926 21.6394 16.6736 21.7761L16.3187 24.3016C16.2954 24.435 16.2265 24.5561 16.1237 24.6443C16.021 24.7325 15.8908 24.7823 15.7555 24.7852H11.2446C11.1114 24.7829 10.9831 24.7353 10.8806 24.6502C10.7781 24.5652 10.7077 24.4478 10.6808 24.3174L10.3265 21.7956C10.3066 21.6574 10.2528 21.5263 10.17 21.4139C10.0872 21.3015 9.97793 21.2112 9.85185 21.1512C9.45748 20.9609 9.07904 20.7393 8.72017 20.4884C8.60526 20.4084 8.47226 20.3583 8.33316 20.3426C8.19406 20.3268 8.05323 20.3459 7.92336 20.3982L5.55611 21.3511C5.43066 21.3989 5.29238 21.4008 5.16562 21.3567C5.03886 21.3125 4.93176 21.225 4.86318 21.1096L2.60773 17.2072C2.53992 17.0906 2.51569 16.9538 2.53935 16.821C2.56301 16.6882 2.63303 16.5681 2.73693 16.4821L4.75191 14.9001C4.8623 14.8125 4.94906 14.6987 5.00432 14.569C5.05957 14.4393 5.08157 14.2979 5.06832 14.1576C5.04933 13.9377 5.03773 13.7183 5.03773 13.4984C5.03773 13.2785 5.04881 13.0623 5.06832 12.8471C5.08012 12.7077 5.05705 12.5675 5.00117 12.4391C4.94529 12.3108 4.85836 12.1984 4.74822 12.112L2.73429 10.53C2.63208 10.4436 2.56353 10.3239 2.54068 10.192C2.51783 10.0601 2.54213 9.92438 2.60931 9.80859L4.86476 5.90625C4.93326 5.79076 5.04032 5.70315 5.16709 5.65887C5.29386 5.61459 5.43218 5.61647 5.55769 5.6642L7.92547 6.61764C8.05604 6.66963 8.19747 6.68841 8.33709 6.6723C8.4767 6.6562 8.61014 6.6057 8.72545 6.52535C9.08681 6.27651 9.46653 6.05545 9.86135 5.86406C9.98547 5.80373 10.0928 5.71377 10.1739 5.60212C10.2551 5.49047 10.3074 5.36056 10.3265 5.22387L10.6814 2.69842C10.7047 2.56504 10.7736 2.4439 10.8763 2.3557C10.979 2.2675 11.1092 2.21771 11.2446 2.21484H15.7555C15.8886 2.21715 16.017 2.26473 16.1194 2.34976C16.2219 2.43478 16.2924 2.55218 16.3192 2.6826L16.6736 5.20436C16.6935 5.34255 16.7472 5.4737 16.83 5.58612C16.9128 5.69854 17.0221 5.78877 17.1482 5.84877C17.5426 6.03906 17.921 6.26073 18.2799 6.51164C18.3948 6.59159 18.5278 6.6417 18.6669 6.65744C18.806 6.67318 18.9468 6.65407 19.0767 6.60182L21.4439 5.64891C21.5694 5.60113 21.7077 5.59917 21.8344 5.64335C21.9612 5.68753 22.0683 5.77503 22.1369 5.89043L24.3923 9.79277C24.4601 9.90936 24.4843 10.0462 24.4607 10.179C24.437 10.3118 24.367 10.4319 24.2631 10.5179L22.2481 12.0999C22.1373 12.1872 22.05 12.3009 21.9943 12.4306C21.9385 12.5603 21.9161 12.7019 21.9291 12.8424C21.9465 13.0607 21.9581 13.2801 21.9581 13.5Z" stroke="white" stroke-width="2" stroke-linecap="round" stroke-linejoin="round"/>
</svg>
