<svg width="19" height="19" viewBox="0 0 19 19" fill="none" xmlns="http://www.w3.org/2000/svg">
<path d="M17.1594 11.6096L15.9441 10.5706C16.0016 10.218 16.0313 9.85808 16.0313 9.49812C16.0313 9.13816 16.0016 8.7782 15.9441 8.42566L17.1594 7.3866C17.2511 7.30812 17.3167 7.2036 17.3475 7.08694C17.3784 6.97027 17.3729 6.84698 17.332 6.73347L17.3153 6.68523C16.9807 5.75011 16.4797 4.88325 15.8365 4.12654L15.8031 4.08757C15.725 3.99582 15.6211 3.92987 15.5048 3.8984C15.3885 3.86694 15.2655 3.87143 15.1518 3.9113L13.6433 4.44753C13.0867 3.99109 12.4651 3.63113 11.7934 3.37878L11.5021 1.80164C11.4801 1.68296 11.4226 1.57379 11.3371 1.48861C11.2515 1.40344 11.1421 1.3463 11.0234 1.32478L10.9733 1.3155C10.0066 1.14109 8.9898 1.14109 8.0231 1.3155L7.973 1.32478C7.85425 1.3463 7.74485 1.40344 7.65934 1.48861C7.57383 1.57379 7.51627 1.68296 7.49429 1.80164L7.20113 3.38621C6.53481 3.63861 5.91431 3.99838 5.36421 4.45124L3.84458 3.9113C3.73097 3.87112 3.60781 3.86646 3.49148 3.89794C3.37515 3.92943 3.27115 3.99557 3.19331 4.08757L3.15992 4.12654C2.51745 4.88379 2.01652 5.75051 1.68111 6.68523L1.66441 6.73347C1.58091 6.9654 1.64956 7.22517 1.83697 7.3866L3.06714 8.43679C3.00962 8.78562 2.98179 9.14187 2.98179 9.49626C2.98179 9.85251 3.00962 10.2088 3.06714 10.5557L1.83697 11.6059C1.7453 11.6844 1.67969 11.7889 1.64887 11.9056C1.61804 12.0223 1.62346 12.1455 1.66441 12.2591L1.68111 12.3073C2.01695 13.2425 2.51421 14.1052 3.15992 14.866L3.19331 14.905C3.27134 14.9967 3.37534 15.0627 3.4916 15.0941C3.60786 15.1256 3.73093 15.1211 3.84458 15.0812L5.36421 14.5413C5.91714 14.9959 6.53501 15.3558 7.20113 15.6063L7.49429 17.1909C7.51627 17.3096 7.57383 17.4187 7.65934 17.5039C7.74485 17.5891 7.85425 17.6462 7.973 17.6677L8.0231 17.677C8.99868 17.8524 9.99771 17.8524 10.9733 17.677L11.0234 17.6677C11.1421 17.6462 11.2515 17.5891 11.3371 17.5039C11.4226 17.4187 11.4801 17.3096 11.5021 17.1909L11.7934 15.6137C12.4648 15.3621 13.0899 15.0009 13.6433 14.545L15.1518 15.0812C15.2654 15.1214 15.3886 15.1261 15.5049 15.0946C15.6212 15.0631 15.7252 14.997 15.8031 14.905L15.8365 14.866C16.4822 14.1034 16.9794 13.2425 17.3153 12.3073L17.332 12.2591C17.4155 12.0308 17.3468 11.7711 17.1594 11.6096ZM14.6267 8.6446C14.6731 8.92478 14.6972 9.21238 14.6972 9.49998C14.6972 9.78757 14.6731 10.0752 14.6267 10.3553L14.5043 11.0994L15.8903 12.285C15.6802 12.7691 15.4149 13.2273 15.0999 13.6507L13.378 13.0402L12.7954 13.5189C12.3519 13.8826 11.8584 14.1683 11.324 14.3687L10.617 14.6341L10.2849 16.4339C9.76088 16.4932 9.23181 16.4932 8.70777 16.4339L8.37564 14.6303L7.67427 14.3613C7.14546 14.1609 6.65376 13.8752 6.21402 13.5134L5.6314 13.0328L3.89839 13.6488C3.58296 13.2239 3.31949 12.7656 3.10796 12.2832L4.50884 11.0864L4.38824 10.3442C4.34371 10.0677 4.31958 9.78201 4.31958 9.49998C4.31958 9.21609 4.34185 8.9322 4.38824 8.65574L4.50884 7.91355L3.10796 6.71677C3.31763 6.23249 3.58296 5.77605 3.89839 5.35115L5.6314 5.96716L6.21402 5.4866C6.65376 5.12478 7.14546 4.83904 7.67427 4.63865L8.37749 4.37332L8.70962 2.5698C9.23101 2.51042 9.76353 2.51042 10.2868 2.5698L10.6189 4.3696L11.3258 4.63494C11.8584 4.83533 12.3538 5.12107 12.7972 5.48474L13.3798 5.96345L15.1017 5.353C15.4171 5.7779 15.6806 6.23621 15.8921 6.71863L14.5061 7.90427L14.6267 8.6446ZM9.50005 6.0488C7.69654 6.0488 6.23443 7.51091 6.23443 9.31443C6.23443 11.1179 7.69654 12.5801 9.50005 12.5801C11.3036 12.5801 12.7657 11.1179 12.7657 9.31443C12.7657 7.51091 11.3036 6.0488 9.50005 6.0488ZM10.9696 10.784C10.7768 10.9773 10.5478 11.1305 10.2956 11.235C10.0434 11.3394 9.77302 11.393 9.50005 11.3926C8.94527 11.3926 8.42388 11.1755 8.03052 10.784C7.83722 10.5912 7.68395 10.3622 7.5795 10.11C7.47505 9.85776 7.4215 9.5874 7.42193 9.31443C7.42193 8.75964 7.63902 8.23826 8.03052 7.8449C8.42388 7.45154 8.94527 7.2363 9.50005 7.2363C10.0548 7.2363 10.5762 7.45154 10.9696 7.8449C11.1629 8.03764 11.3162 8.2667 11.4206 8.5189C11.5251 8.7711 11.5786 9.04146 11.5782 9.31443C11.5782 9.86921 11.3611 10.3906 10.9696 10.784Z" fill="black"/>
</svg>
