<svg width="76" height="76" viewBox="0 0 76 76" fill="none" xmlns="http://www.w3.org/2000/svg">
<circle cx="38" cy="38" r="38" fill="#CAFFD1"/>
<path d="M33.7498 45.0418C33.3318 45.0098 32.9429 44.8154 32.6665 44.5001L26.1665 38.0001C26.0216 37.6969 25.9744 37.3562 26.0312 37.025C26.088 36.6938 26.2461 36.3884 26.4838 36.1508C26.7214 35.9131 27.0268 35.755 27.358 35.6982C27.6892 35.6414 28.0299 35.6886 28.3331 35.8335L33.6848 41.1851L52.1665 22.8335C52.4697 22.6886 52.8104 22.6414 53.1416 22.6982C53.4728 22.755 53.7782 22.9131 54.0158 23.1508C54.2534 23.3884 54.4116 23.6938 54.4684 24.025C54.5252 24.3562 54.478 24.6969 54.3331 25.0001L34.8331 44.5001C34.5567 44.8154 34.1678 45.0098 33.7498 45.0418Z" fill="#4CAF50"/>
<path d="M37.0002 57.4999C33.5151 57.4943 30.0951 56.5548 27.0962 54.7791C24.0974 53.0034 21.6292 50.4564 19.9486 47.4032C18.6728 45.1274 17.8834 42.6116 17.6302 40.0149C17.2337 36.2061 17.9674 32.3648 19.7398 28.9702C21.5122 25.5757 24.2449 22.7781 27.5969 20.9266C29.8727 19.6508 32.3886 18.8614 34.9852 18.6082C37.5726 18.3323 40.189 18.5829 42.6769 19.3449C42.8989 19.3892 43.1092 19.4795 43.2943 19.6098C43.4793 19.7402 43.6351 19.9078 43.7517 20.1019C43.8682 20.296 43.9429 20.5123 43.971 20.7369C43.999 20.9615 43.9799 21.1895 43.9147 21.4063C43.8495 21.6231 43.7397 21.8239 43.5924 21.9958C43.4451 22.1677 43.2635 22.3069 43.0593 22.4045C42.855 22.5022 42.6326 22.556 42.4063 22.5627C42.18 22.5693 41.9549 22.5287 41.7452 22.4432C39.6408 21.8092 37.4307 21.603 35.2452 21.8366C33.0847 22.056 30.9913 22.712 29.0919 23.7649C27.2614 24.7748 25.6429 26.1284 24.3252 27.7516C22.9686 29.4051 21.9555 31.3127 21.3454 33.3626C20.7352 35.4126 20.5403 37.5636 20.7719 39.6899C20.9913 41.8504 21.6474 43.9439 22.7002 45.8432C23.7101 47.6738 25.0638 49.2922 26.6869 50.6099C28.3404 51.9665 30.248 52.9796 32.298 53.5897C34.3479 54.1999 36.499 54.3948 38.6252 54.1632C40.7858 53.9438 42.8792 53.2878 44.7786 52.2349C46.6091 51.225 48.2276 49.8714 49.5452 48.2482C50.9019 46.5947 51.9149 44.6871 52.5251 42.6372C53.1352 40.5872 53.3302 38.4361 53.0986 36.3099C53.0555 35.8588 53.1933 35.4091 53.4818 35.0596C53.7703 34.7102 54.1858 34.4897 54.6369 34.4466C55.088 34.4035 55.5377 34.5413 55.8872 34.8298C56.2366 35.1183 56.4571 35.5338 56.5002 35.9849C56.8948 39.796 56.1578 43.6389 54.3814 47.0336C52.6051 50.4284 49.8679 53.2247 46.5119 55.0732C44.2119 56.4012 41.6572 57.2282 39.0152 57.4999H37.0002Z" fill="#4CAF50"/>
</svg>
