<svg width="28" height="28" viewBox="0 0 28 28" fill="none" xmlns="http://www.w3.org/2000/svg">
<path d="M14 17.5002V2.3335M14 2.3335L17.5 6.41683M14 2.3335L10.5 6.41683" stroke="white" stroke-width="2" stroke-linecap="round" stroke-linejoin="round"/>
<path d="M9.3335 25.6668H18.6668C21.9662 25.6668 23.617 25.6668 24.6413 24.6424C25.6668 23.6158 25.6668 21.9673 25.6668 18.6668V17.5001C25.6668 14.2008 25.6668 12.5511 24.6413 11.5256C23.7453 10.6296 22.371 10.5164 19.8335 10.5024M8.16683 10.5024C5.62933 10.5164 4.255 10.6296 3.359 11.5256C2.3335 12.5511 2.3335 14.2008 2.3335 17.5001V18.6668C2.3335 21.9673 2.3335 23.6169 3.359 24.6424C3.709 24.9924 4.13133 25.2223 4.66683 25.3739" stroke="white" stroke-width="2" stroke-linecap="round"/>
</svg>
