<svg width="28" height="28" viewBox="0 0 28 28" fill="none" xmlns="http://www.w3.org/2000/svg">
<path d="M25.1346 12.8858C25.4893 13.3828 25.6666 13.6324 25.6666 13.9999C25.6666 14.3686 25.4893 14.6171 25.1346 15.1141C23.5409 17.3494 19.4704 22.1666 13.9999 22.1666C8.52825 22.1666 4.45892 17.3483 2.86525 15.1141C2.51059 14.6171 2.33325 14.3674 2.33325 13.9999C2.33325 13.6313 2.51059 13.3828 2.86525 12.8858C4.45892 10.6504 8.52942 5.83325 13.9999 5.83325C19.4716 5.83325 23.5409 10.6516 25.1346 12.8858Z" stroke="black" stroke-width="2" stroke-linecap="round" stroke-linejoin="round"/>
<path d="M17.5 14C17.5 13.0717 17.1313 12.1815 16.4749 11.5251C15.8185 10.8687 14.9283 10.5 14 10.5C13.0717 10.5 12.1815 10.8687 11.5251 11.5251C10.8687 12.1815 10.5 13.0717 10.5 14C10.5 14.9283 10.8687 15.8185 11.5251 16.4749C12.1815 17.1313 13.0717 17.5 14 17.5C14.9283 17.5 15.8185 17.1313 16.4749 16.4749C17.1313 15.8185 17.5 14.9283 17.5 14Z" stroke="black" stroke-width="2" stroke-linecap="round" stroke-linejoin="round"/>
</svg>
